%TF.GenerationSoftware,KiCad,Pcbnew,10.0.4*%
%TF.CreationDate,2026-06-26T14:33:37-04:00*%
%TF.ProjectId,duck,6475636b-2e6b-4696-9361-645f70636258,rev?*%
%TF.SameCoordinates,Original*%
%TF.FileFunction,Soldermask,Top*%
%TF.FilePolarity,Negative*%
%FSLAX46Y46*%
G04 Gerber Fmt 4.6, Leading zero omitted, Abs format (unit mm)*
G04 Created by KiCad (PCBNEW 10.0.4) date 2026-06-26 14:33:37*
%MOMM*%
%LPD*%
G01*
G04 APERTURE LIST*
G04 Aperture macros list*
%AMRoundRect*
0 Rectangle with rounded corners*
0 $1 Rounding radius*
0 $2 $3 $4 $5 $6 $7 $8 $9 X,Y pos of 4 corners*
0 Add a 4 corners polygon primitive as box body*
4,1,4,$2,$3,$4,$5,$6,$7,$8,$9,$2,$3,0*
0 Add four circle primitives for the rounded corners*
1,1,$1+$1,$2,$3*
1,1,$1+$1,$4,$5*
1,1,$1+$1,$6,$7*
1,1,$1+$1,$8,$9*
0 Add four rect primitives between the rounded corners*
20,1,$1+$1,$2,$3,$4,$5,0*
20,1,$1+$1,$4,$5,$6,$7,0*
20,1,$1+$1,$6,$7,$8,$9,0*
20,1,$1+$1,$8,$9,$2,$3,0*%
G04 Aperture macros list end*
%ADD10C,1.600000*%
%ADD11RoundRect,0.250000X-0.550000X-0.550000X0.550000X-0.550000X0.550000X0.550000X-0.550000X0.550000X0*%
%ADD12RoundRect,0.250000X0.650000X0.650000X-0.650000X0.650000X-0.650000X-0.650000X0.650000X-0.650000X0*%
%ADD13C,1.800000*%
%ADD14C,2.100000*%
%ADD15C,3.400000*%
%ADD16C,3.000000*%
%ADD17R,3.500000X3.500000*%
%ADD18RoundRect,0.750000X-0.750000X-1.000000X0.750000X-1.000000X0.750000X1.000000X-0.750000X1.000000X0*%
%ADD19RoundRect,0.875000X-0.875000X-0.875000X0.875000X-0.875000X0.875000X0.875000X-0.875000X0.875000X0*%
%ADD20RoundRect,0.249999X-0.850001X-0.850001X0.850001X-0.850001X0.850001X0.850001X-0.850001X0.850001X0*%
%ADD21C,2.200000*%
%ADD22RoundRect,0.450000X0.450000X0.450000X-0.450000X0.450000X-0.450000X-0.450000X0.450000X-0.450000X0*%
G04 APERTURE END LIST*
D10*
%TO.C,C7*%
X116000000Y-64000000D03*
X121000000Y-64000000D03*
%TD*%
%TO.C,R9*%
X35000000Y-82000000D03*
X37540000Y-82000000D03*
%TD*%
%TO.C,R21*%
X98000000Y-91000000D03*
X100540000Y-91000000D03*
%TD*%
%TO.C,R13*%
X134000000Y-82000000D03*
X136540000Y-82000000D03*
%TD*%
%TO.C,R11*%
X116000000Y-82000000D03*
X118540000Y-82000000D03*
%TD*%
%TO.C,R40*%
X134000000Y-100000000D03*
X136540000Y-100000000D03*
%TD*%
D11*
%TO.C,D13*%
X80000000Y-91000000D03*
D10*
X82540000Y-91000000D03*
%TD*%
D11*
%TO.C,C2*%
X71000000Y-64000000D03*
D10*
X73500000Y-64000000D03*
%TD*%
%TO.C,R47*%
X80000000Y-109000000D03*
X82540000Y-109000000D03*
%TD*%
%TO.C,R24*%
X125000000Y-91000000D03*
X127540000Y-91000000D03*
%TD*%
D12*
%TO.C,RV2*%
X65000000Y-13000000D03*
D13*
X65000000Y-15500000D03*
X65000000Y-18000000D03*
%TD*%
D11*
%TO.C,D8*%
X98000000Y-82000000D03*
D10*
X100540000Y-82000000D03*
%TD*%
%TO.C,R31*%
X71000000Y-100000000D03*
X73540000Y-100000000D03*
%TD*%
%TO.C,R22*%
X107000000Y-91000000D03*
X109540000Y-91000000D03*
%TD*%
%TO.C,R39*%
X125000000Y-100000000D03*
X127540000Y-100000000D03*
%TD*%
%TO.C,R41*%
X62000000Y-109000000D03*
X64540000Y-109000000D03*
%TD*%
D11*
%TO.C,U7*%
X138000000Y-38000000D03*
D10*
X138000000Y-40540000D03*
X138000000Y-43080000D03*
X138000000Y-45620000D03*
X138000000Y-48160000D03*
X138000000Y-50700000D03*
X138000000Y-53240000D03*
X138000000Y-55780000D03*
X145620000Y-55780000D03*
X145620000Y-53240000D03*
X145620000Y-50700000D03*
X145620000Y-48160000D03*
X145620000Y-45620000D03*
X145620000Y-43080000D03*
X145620000Y-40540000D03*
X145620000Y-38000000D03*
%TD*%
%TO.C,R44*%
X35000000Y-118000000D03*
X37540000Y-118000000D03*
%TD*%
%TO.C,R8*%
X26000000Y-82000000D03*
X28540000Y-82000000D03*
%TD*%
%TO.C,R45*%
X71000000Y-109000000D03*
X73540000Y-109000000D03*
%TD*%
%TO.C,J2*%
X159820000Y-74070000D03*
D14*
X166810000Y-63910000D03*
D15*
X168080000Y-67720000D03*
X157920000Y-67720000D03*
D16*
X163000000Y-62000000D03*
%TD*%
D10*
%TO.C,C23*%
X102000000Y-24000000D03*
X107000000Y-24000000D03*
%TD*%
%TO.C,R4*%
X116000000Y-73000000D03*
X118540000Y-73000000D03*
%TD*%
D12*
%TO.C,RV1*%
X30000000Y-13000000D03*
D13*
X30000000Y-15500000D03*
X30000000Y-18000000D03*
%TD*%
D10*
%TO.C,C14*%
X62000000Y-64000000D03*
X67000000Y-64000000D03*
%TD*%
%TO.C,R3*%
X107000000Y-73000000D03*
X109540000Y-73000000D03*
%TD*%
%TO.C,C5*%
X98000000Y-64000000D03*
X103000000Y-64000000D03*
%TD*%
D11*
%TO.C,D11*%
X80000000Y-82000000D03*
D10*
X82540000Y-82000000D03*
%TD*%
D11*
%TO.C,C1*%
X26000000Y-64000000D03*
D10*
X28500000Y-64000000D03*
%TD*%
%TO.C,C13*%
X53000000Y-64000000D03*
X58000000Y-64000000D03*
%TD*%
%TO.C,R37*%
X107000000Y-100000000D03*
X109540000Y-100000000D03*
%TD*%
%TO.C,C16*%
X44000000Y-109000000D03*
X49000000Y-109000000D03*
%TD*%
%TO.C,C10*%
X35000000Y-64000000D03*
X40000000Y-64000000D03*
%TD*%
%TO.C,R28*%
X35000000Y-100000000D03*
X37540000Y-100000000D03*
%TD*%
D11*
%TO.C,D7*%
X53000000Y-73000000D03*
D10*
X55540000Y-73000000D03*
%TD*%
D11*
%TO.C,U3*%
X66000000Y-38000000D03*
D10*
X66000000Y-40540000D03*
X66000000Y-43080000D03*
X66000000Y-45620000D03*
X66000000Y-48160000D03*
X66000000Y-50700000D03*
X66000000Y-53240000D03*
X73620000Y-53240000D03*
X73620000Y-50700000D03*
X73620000Y-48160000D03*
X73620000Y-45620000D03*
X73620000Y-43080000D03*
X73620000Y-40540000D03*
X73620000Y-38000000D03*
%TD*%
%TO.C,C15*%
X71000000Y-91000000D03*
X76000000Y-91000000D03*
%TD*%
%TO.C,C25*%
X138000000Y-24000000D03*
X143000000Y-24000000D03*
%TD*%
%TO.C,C20*%
X48000000Y-24000000D03*
X53000000Y-24000000D03*
%TD*%
%TO.C,R20*%
X53000000Y-91000000D03*
X55540000Y-91000000D03*
%TD*%
D11*
%TO.C,D10*%
X71000000Y-82000000D03*
D10*
X73540000Y-82000000D03*
%TD*%
%TO.C,J1*%
X8820000Y-74070000D03*
D14*
X15810000Y-63910000D03*
D15*
X17080000Y-67720000D03*
X6920000Y-67720000D03*
D16*
X12000000Y-62000000D03*
%TD*%
D10*
%TO.C,R35*%
X89000000Y-100000000D03*
X91540000Y-100000000D03*
%TD*%
%TO.C,R12*%
X125000000Y-82000000D03*
X127540000Y-82000000D03*
%TD*%
%TO.C,R33*%
X53000000Y-100000000D03*
X55540000Y-100000000D03*
%TD*%
D11*
%TO.C,D5*%
X35000000Y-73000000D03*
D10*
X37540000Y-73000000D03*
%TD*%
D17*
%TO.C,J3*%
X163000000Y-13000000D03*
D18*
X157000000Y-13000000D03*
D19*
X160000000Y-17700000D03*
%TD*%
D10*
%TO.C,R50*%
X98000000Y-109000000D03*
X100540000Y-109000000D03*
%TD*%
%TO.C,R48*%
X89000000Y-109000000D03*
X91540000Y-109000000D03*
%TD*%
%TO.C,C17*%
X53000000Y-109000000D03*
X58000000Y-109000000D03*
%TD*%
%TO.C,C18*%
X116000000Y-109000000D03*
X121000000Y-109000000D03*
%TD*%
%TO.C,R1*%
X62000000Y-73000000D03*
X64540000Y-73000000D03*
%TD*%
%TO.C,C24*%
X120000000Y-24000000D03*
X125000000Y-24000000D03*
%TD*%
%TO.C,C22*%
X84000000Y-24000000D03*
X89000000Y-24000000D03*
%TD*%
D20*
%TO.C,D1*%
X148000000Y-24000000D03*
D21*
X158160000Y-24000000D03*
%TD*%
D10*
%TO.C,R25*%
X134000000Y-91000000D03*
X136540000Y-91000000D03*
%TD*%
%TO.C,R10*%
X71000000Y-73000000D03*
X73540000Y-73000000D03*
%TD*%
D11*
%TO.C,D3*%
X143000000Y-64000000D03*
D10*
X145540000Y-64000000D03*
%TD*%
%TO.C,R23*%
X116000000Y-91000000D03*
X118540000Y-91000000D03*
%TD*%
%TO.C,R5*%
X125000000Y-73000000D03*
X127540000Y-73000000D03*
%TD*%
%TO.C,R52*%
X143000000Y-109000000D03*
X145540000Y-109000000D03*
%TD*%
%TO.C,R19*%
X44000000Y-91000000D03*
X46540000Y-91000000D03*
%TD*%
D11*
%TO.C,U5*%
X102000000Y-38000000D03*
D10*
X102000000Y-40540000D03*
X102000000Y-43080000D03*
X102000000Y-45620000D03*
X102000000Y-48160000D03*
X102000000Y-50700000D03*
X102000000Y-53240000D03*
X109620000Y-53240000D03*
X109620000Y-50700000D03*
X109620000Y-48160000D03*
X109620000Y-45620000D03*
X109620000Y-43080000D03*
X109620000Y-40540000D03*
X109620000Y-38000000D03*
%TD*%
D22*
%TO.C,RV4*%
X135000000Y-13000000D03*
D13*
X135000000Y-15500000D03*
X135000000Y-18000000D03*
X137500000Y-13000000D03*
X137500000Y-15500000D03*
X137500000Y-18000000D03*
%TD*%
D11*
%TO.C,U4*%
X84000000Y-38000000D03*
D10*
X84000000Y-40540000D03*
X84000000Y-43080000D03*
X84000000Y-45620000D03*
X84000000Y-48160000D03*
X84000000Y-50700000D03*
X84000000Y-53240000D03*
X91620000Y-53240000D03*
X91620000Y-50700000D03*
X91620000Y-48160000D03*
X91620000Y-45620000D03*
X91620000Y-43080000D03*
X91620000Y-40540000D03*
X91620000Y-38000000D03*
%TD*%
%TO.C,R6*%
X134000000Y-73000000D03*
X136540000Y-73000000D03*
%TD*%
%TO.C,R26*%
X143000000Y-91000000D03*
X145540000Y-91000000D03*
%TD*%
%TO.C,C4*%
X89000000Y-64000000D03*
X94000000Y-64000000D03*
%TD*%
%TO.C,R46*%
X44000000Y-118000000D03*
X46540000Y-118000000D03*
%TD*%
D11*
%TO.C,U2*%
X48000000Y-38000000D03*
D10*
X48000000Y-40540000D03*
X48000000Y-43080000D03*
X48000000Y-45620000D03*
X48000000Y-48160000D03*
X48000000Y-50700000D03*
X48000000Y-53240000D03*
X55620000Y-53240000D03*
X55620000Y-50700000D03*
X55620000Y-48160000D03*
X55620000Y-45620000D03*
X55620000Y-43080000D03*
X55620000Y-40540000D03*
X55620000Y-38000000D03*
%TD*%
%TO.C,R49*%
X125000000Y-109000000D03*
X127540000Y-109000000D03*
%TD*%
%TO.C,R38*%
X116000000Y-100000000D03*
X118540000Y-100000000D03*
%TD*%
%TO.C,R17*%
X26000000Y-91000000D03*
X28540000Y-91000000D03*
%TD*%
%TO.C,R34*%
X80000000Y-100000000D03*
X82540000Y-100000000D03*
%TD*%
%TO.C,C3*%
X80000000Y-64000000D03*
X85000000Y-64000000D03*
%TD*%
%TO.C,C8*%
X125000000Y-64000000D03*
X130000000Y-64000000D03*
%TD*%
%TO.C,C19*%
X30000000Y-24000000D03*
X35000000Y-24000000D03*
%TD*%
D11*
%TO.C,C11*%
X44000000Y-64000000D03*
D10*
X46500000Y-64000000D03*
%TD*%
D11*
%TO.C,C12*%
X53000000Y-82000000D03*
D10*
X55500000Y-82000000D03*
%TD*%
%TO.C,C6*%
X107000000Y-64000000D03*
X112000000Y-64000000D03*
%TD*%
D11*
%TO.C,D4*%
X26000000Y-73000000D03*
D10*
X28540000Y-73000000D03*
%TD*%
%TO.C,R14*%
X80000000Y-73000000D03*
X82540000Y-73000000D03*
%TD*%
%TO.C,R30*%
X62000000Y-100000000D03*
X64540000Y-100000000D03*
%TD*%
%TO.C,C21*%
X66000000Y-24000000D03*
X71000000Y-24000000D03*
%TD*%
%TO.C,R36*%
X98000000Y-100000000D03*
X100540000Y-100000000D03*
%TD*%
D11*
%TO.C,D6*%
X44000000Y-73000000D03*
D10*
X46540000Y-73000000D03*
%TD*%
%TO.C,R42*%
X143000000Y-100000000D03*
X145540000Y-100000000D03*
%TD*%
%TO.C,R32*%
X62000000Y-91000000D03*
X64540000Y-91000000D03*
%TD*%
%TO.C,R27*%
X26000000Y-100000000D03*
X28540000Y-100000000D03*
%TD*%
%TO.C,R51*%
X134000000Y-109000000D03*
X136540000Y-109000000D03*
%TD*%
%TO.C,R16*%
X89000000Y-73000000D03*
X91540000Y-73000000D03*
%TD*%
D11*
%TO.C,D9*%
X107000000Y-82000000D03*
D10*
X109540000Y-82000000D03*
%TD*%
%TO.C,C9*%
X62000000Y-82000000D03*
X67000000Y-82000000D03*
%TD*%
%TO.C,R2*%
X98000000Y-73000000D03*
X100540000Y-73000000D03*
%TD*%
D11*
%TO.C,D14*%
X89000000Y-91000000D03*
D10*
X91540000Y-91000000D03*
%TD*%
D11*
%TO.C,D2*%
X134000000Y-64000000D03*
D10*
X136540000Y-64000000D03*
%TD*%
D11*
%TO.C,U1*%
X30000000Y-38000000D03*
D10*
X30000000Y-40540000D03*
X30000000Y-43080000D03*
X30000000Y-45620000D03*
X30000000Y-48160000D03*
X30000000Y-50700000D03*
X30000000Y-53240000D03*
X37620000Y-53240000D03*
X37620000Y-50700000D03*
X37620000Y-48160000D03*
X37620000Y-45620000D03*
X37620000Y-43080000D03*
X37620000Y-40540000D03*
X37620000Y-38000000D03*
%TD*%
%TO.C,R29*%
X44000000Y-100000000D03*
X46540000Y-100000000D03*
%TD*%
D11*
%TO.C,D12*%
X89000000Y-82000000D03*
D10*
X91540000Y-82000000D03*
%TD*%
D11*
%TO.C,U6*%
X120000000Y-38000000D03*
D10*
X120000000Y-40540000D03*
X120000000Y-43080000D03*
X120000000Y-45620000D03*
X120000000Y-48160000D03*
X120000000Y-50700000D03*
X120000000Y-53240000D03*
X127620000Y-53240000D03*
X127620000Y-50700000D03*
X127620000Y-48160000D03*
X127620000Y-45620000D03*
X127620000Y-43080000D03*
X127620000Y-40540000D03*
X127620000Y-38000000D03*
%TD*%
%TO.C,R15*%
X143000000Y-82000000D03*
X145540000Y-82000000D03*
%TD*%
%TO.C,R18*%
X35000000Y-91000000D03*
X37540000Y-91000000D03*
%TD*%
%TO.C,R43*%
X26000000Y-109000000D03*
X28540000Y-109000000D03*
%TD*%
D12*
%TO.C,RV3*%
X100000000Y-13000000D03*
D13*
X100000000Y-15500000D03*
X100000000Y-18000000D03*
%TD*%
D10*
%TO.C,R7*%
X143000000Y-73000000D03*
X145540000Y-73000000D03*
%TD*%
M02*
