%TF.GenerationSoftware,KiCad,Pcbnew,10.0.4*%
%TF.CreationDate,2026-06-26T14:33:37-04:00*%
%TF.ProjectId,duck,6475636b-2e6b-4696-9361-645f70636258,rev?*%
%TF.SameCoordinates,Original*%
%TF.FileFunction,Copper,L1,Top*%
%TF.FilePolarity,Positive*%
%FSLAX46Y46*%
G04 Gerber Fmt 4.6, Leading zero omitted, Abs format (unit mm)*
G04 Created by KiCad (PCBNEW 10.0.4) date 2026-06-26 14:33:37*
%MOMM*%
%LPD*%
G01*
G04 APERTURE LIST*
G04 Aperture macros list*
%AMRoundRect*
0 Rectangle with rounded corners*
0 $1 Rounding radius*
0 $2 $3 $4 $5 $6 $7 $8 $9 X,Y pos of 4 corners*
0 Add a 4 corners polygon primitive as box body*
4,1,4,$2,$3,$4,$5,$6,$7,$8,$9,$2,$3,0*
0 Add four circle primitives for the rounded corners*
1,1,$1+$1,$2,$3*
1,1,$1+$1,$4,$5*
1,1,$1+$1,$6,$7*
1,1,$1+$1,$8,$9*
0 Add four rect primitives between the rounded corners*
20,1,$1+$1,$2,$3,$4,$5,0*
20,1,$1+$1,$4,$5,$6,$7,0*
20,1,$1+$1,$6,$7,$8,$9,0*
20,1,$1+$1,$8,$9,$2,$3,0*%
G04 Aperture macros list end*
%TA.AperFunction,ComponentPad*%
%ADD10C,1.600000*%
%TD*%
%TA.AperFunction,ComponentPad*%
%ADD11RoundRect,0.250000X-0.550000X-0.550000X0.550000X-0.550000X0.550000X0.550000X-0.550000X0.550000X0*%
%TD*%
%TA.AperFunction,ComponentPad*%
%ADD12RoundRect,0.250000X0.650000X0.650000X-0.650000X0.650000X-0.650000X-0.650000X0.650000X-0.650000X0*%
%TD*%
%TA.AperFunction,ComponentPad*%
%ADD13C,1.800000*%
%TD*%
%TA.AperFunction,ComponentPad*%
%ADD14C,3.400000*%
%TD*%
%TA.AperFunction,ComponentPad*%
%ADD15C,3.000000*%
%TD*%
%TA.AperFunction,ComponentPad*%
%ADD16R,3.500000X3.500000*%
%TD*%
%TA.AperFunction,ComponentPad*%
%ADD17RoundRect,0.750000X-0.750000X-1.000000X0.750000X-1.000000X0.750000X1.000000X-0.750000X1.000000X0*%
%TD*%
%TA.AperFunction,ComponentPad*%
%ADD18RoundRect,0.875000X-0.875000X-0.875000X0.875000X-0.875000X0.875000X0.875000X-0.875000X0.875000X0*%
%TD*%
%TA.AperFunction,ComponentPad*%
%ADD19RoundRect,0.249999X-0.850001X-0.850001X0.850001X-0.850001X0.850001X0.850001X-0.850001X0.850001X0*%
%TD*%
%TA.AperFunction,ComponentPad*%
%ADD20C,2.200000*%
%TD*%
%TA.AperFunction,ComponentPad*%
%ADD21RoundRect,0.450000X0.450000X0.450000X-0.450000X0.450000X-0.450000X-0.450000X0.450000X-0.450000X0*%
%TD*%
%TA.AperFunction,ViaPad*%
%ADD22C,0.600000*%
%TD*%
%TA.AperFunction,Conductor*%
%ADD23C,0.200000*%
%TD*%
G04 APERTURE END LIST*
D10*
%TO.P,C7,1*%
%TO.N,N$7*%
X116000000Y-64000000D03*
%TO.P,C7,2*%
%TO.N,FZ2*%
X121000000Y-64000000D03*
%TD*%
%TO.P,R9,1*%
%TO.N,N$7*%
X35000000Y-82000000D03*
%TO.P,R9,2*%
%TO.N,FZ2*%
X37540000Y-82000000D03*
%TD*%
%TO.P,R21,1*%
%TO.N,N$20*%
X98000000Y-91000000D03*
%TO.P,R21,2*%
%TO.N,N$22*%
X100540000Y-91000000D03*
%TD*%
%TO.P,R13,1*%
%TO.N,FZ3*%
X134000000Y-82000000D03*
%TO.P,R13,2*%
%TO.N,FZ*%
X136540000Y-82000000D03*
%TD*%
%TO.P,R11,1*%
%TO.N,N$10*%
X116000000Y-82000000D03*
%TO.P,R11,2*%
%TO.N,N$11*%
X118540000Y-82000000D03*
%TD*%
%TO.P,R40,1*%
%TO.N,N$35*%
X134000000Y-100000000D03*
%TO.P,R40,2*%
%TO.N,HP*%
X136540000Y-100000000D03*
%TD*%
D11*
%TO.P,D13,1*%
%TO.N,N$22*%
X80000000Y-91000000D03*
D10*
%TO.P,D13,2*%
%TO.N,N$25*%
X82540000Y-91000000D03*
%TD*%
D11*
%TO.P,C2,1*%
%TO.N,NREF*%
X71000000Y-64000000D03*
D10*
%TO.P,C2,2*%
%TO.N,GND*%
X73500000Y-64000000D03*
%TD*%
%TO.P,R47,1*%
%TO.N,N$42*%
X80000000Y-109000000D03*
%TO.P,R47,2*%
%TO.N,N$43*%
X82540000Y-109000000D03*
%TD*%
%TO.P,R24,1*%
%TO.N,N$24*%
X125000000Y-91000000D03*
%TO.P,R24,2*%
%TO.N,N$23*%
X127540000Y-91000000D03*
%TD*%
D12*
%TO.P,RV2,1*%
%TO.N,N$2*%
X65000000Y-13000000D03*
D13*
%TO.P,RV2,2*%
%TO.N,N$3*%
X65000000Y-15500000D03*
%TO.P,RV2,3*%
X65000000Y-18000000D03*
%TD*%
D11*
%TO.P,D8,1*%
%TO.N,FZ3*%
X98000000Y-82000000D03*
D10*
%TO.P,D8,2*%
%TO.N,N$11*%
X100540000Y-82000000D03*
%TD*%
%TO.P,R31,1*%
%TO.N,N$29*%
X71000000Y-100000000D03*
%TO.P,R31,2*%
%TO.N,ECTL*%
X73540000Y-100000000D03*
%TD*%
%TO.P,R22,1*%
%TO.N,N$22*%
X107000000Y-91000000D03*
%TO.P,R22,2*%
%TO.N,N$24*%
X109540000Y-91000000D03*
%TD*%
%TO.P,R39,1*%
%TO.N,LP*%
X125000000Y-100000000D03*
%TO.P,R39,2*%
%TO.N,N$35*%
X127540000Y-100000000D03*
%TD*%
%TO.P,R41,1*%
%TO.N,BP*%
X62000000Y-109000000D03*
%TO.P,R41,2*%
%TO.N,N$36*%
X64540000Y-109000000D03*
%TD*%
D11*
%TO.P,U7,1*%
%TO.N,N$31*%
X138000000Y-38000000D03*
D10*
%TO.P,U7,2*%
%TO.N,N/C*%
X138000000Y-40540000D03*
%TO.P,U7,3*%
%TO.N,N$37*%
X138000000Y-43080000D03*
%TO.P,U7,4*%
%TO.N,VREF*%
X138000000Y-45620000D03*
%TO.P,U7,5*%
%TO.N,N$38*%
X138000000Y-48160000D03*
%TO.P,U7,6*%
%TO.N,GND*%
X138000000Y-50700000D03*
%TO.P,U7,7*%
X138000000Y-53240000D03*
%TO.P,U7,8*%
%TO.N,N/C*%
X138000000Y-55780000D03*
%TO.P,U7,9*%
X145620000Y-55780000D03*
%TO.P,U7,10*%
%TO.N,GND*%
X145620000Y-53240000D03*
%TO.P,U7,11*%
%TO.N,VCC*%
X145620000Y-50700000D03*
%TO.P,U7,12*%
%TO.N,N$41*%
X145620000Y-48160000D03*
%TO.P,U7,13*%
%TO.N,VREF*%
X145620000Y-45620000D03*
%TO.P,U7,14*%
%TO.N,N$40*%
X145620000Y-43080000D03*
%TO.P,U7,15*%
%TO.N,N/C*%
X145620000Y-40540000D03*
%TO.P,U7,16*%
%TO.N,N$32*%
X145620000Y-38000000D03*
%TD*%
%TO.P,R44,1*%
%TO.N,N$37*%
X35000000Y-118000000D03*
%TO.P,R44,2*%
%TO.N,VREF*%
X37540000Y-118000000D03*
%TD*%
%TO.P,R8,1*%
%TO.N,N$6*%
X26000000Y-82000000D03*
%TO.P,R8,2*%
%TO.N,N$7*%
X28540000Y-82000000D03*
%TD*%
%TO.P,R45,1*%
%TO.N,BP*%
X71000000Y-109000000D03*
%TO.P,R45,2*%
%TO.N,N$40*%
X73540000Y-109000000D03*
%TD*%
D14*
%TO.P,J2,R*%
%TO.N,N/C*%
X168080000Y-67720000D03*
%TO.P,J2,S*%
%TO.N,GND*%
X157920000Y-67720000D03*
D15*
%TO.P,J2,T*%
%TO.N,OUT*%
X163000000Y-62000000D03*
%TD*%
D10*
%TO.P,C23,1*%
%TO.N,VCC*%
X102000000Y-24000000D03*
%TO.P,C23,2*%
%TO.N,GND*%
X107000000Y-24000000D03*
%TD*%
%TO.P,R4,1*%
%TO.N,N$1*%
X116000000Y-73000000D03*
%TO.P,R4,2*%
%TO.N,VREF*%
X118540000Y-73000000D03*
%TD*%
D12*
%TO.P,RV1,1*%
%TO.N,OPRE*%
X30000000Y-13000000D03*
D13*
%TO.P,RV1,2*%
%TO.N,N$47*%
X30000000Y-15500000D03*
%TO.P,RV1,3*%
%TO.N,VREF*%
X30000000Y-18000000D03*
%TD*%
D10*
%TO.P,C14,1*%
%TO.N,N$26*%
X62000000Y-64000000D03*
%TO.P,C14,2*%
%TO.N,VREF*%
X67000000Y-64000000D03*
%TD*%
%TO.P,R3,1*%
%TO.N,NP*%
X107000000Y-73000000D03*
%TO.P,R3,2*%
%TO.N,VREF*%
X109540000Y-73000000D03*
%TD*%
%TO.P,C5,1*%
%TO.N,N$3*%
X98000000Y-64000000D03*
%TO.P,C5,2*%
%TO.N,FZ1*%
X103000000Y-64000000D03*
%TD*%
D11*
%TO.P,D11,1*%
%TO.N,N$14*%
X80000000Y-82000000D03*
D10*
%TO.P,D11,2*%
%TO.N,N$17*%
X82540000Y-82000000D03*
%TD*%
D11*
%TO.P,C1,1*%
%TO.N,VCC*%
X26000000Y-64000000D03*
D10*
%TO.P,C1,2*%
%TO.N,GND*%
X28500000Y-64000000D03*
%TD*%
%TO.P,C13,1*%
%TO.N,FZ*%
X53000000Y-64000000D03*
%TO.P,C13,2*%
%TO.N,N$20*%
X58000000Y-64000000D03*
%TD*%
%TO.P,R37,1*%
%TO.N,N$34*%
X107000000Y-100000000D03*
%TO.P,R37,2*%
%TO.N,N$33*%
X109540000Y-100000000D03*
%TD*%
%TO.P,C16,1*%
%TO.N,N$38*%
X44000000Y-109000000D03*
%TO.P,C16,2*%
%TO.N,VREF*%
X49000000Y-109000000D03*
%TD*%
%TO.P,C10,1*%
%TO.N,FZ*%
X35000000Y-64000000D03*
%TO.P,C10,2*%
%TO.N,VREF*%
X40000000Y-64000000D03*
%TD*%
%TO.P,R28,1*%
%TO.N,VCC*%
X35000000Y-100000000D03*
%TO.P,R28,2*%
%TO.N,N$28*%
X37540000Y-100000000D03*
%TD*%
D11*
%TO.P,D7,1*%
%TO.N,N$7*%
X53000000Y-73000000D03*
D10*
%TO.P,D7,2*%
%TO.N,N$9*%
X55540000Y-73000000D03*
%TD*%
D11*
%TO.P,U3,1*%
%TO.N,N$25*%
X66000000Y-38000000D03*
D10*
%TO.P,U3,2*%
%TO.N,N$22*%
X66000000Y-40540000D03*
%TO.P,U3,3*%
%TO.N,VREF*%
X66000000Y-43080000D03*
%TO.P,U3,4*%
%TO.N,VCC*%
X66000000Y-45620000D03*
%TO.P,U3,5*%
%TO.N,VREF*%
X66000000Y-48160000D03*
%TO.P,U3,6*%
%TO.N,N$23*%
X66000000Y-50700000D03*
%TO.P,U3,7*%
%TO.N,N$21*%
X66000000Y-53240000D03*
%TO.P,U3,8*%
%TO.N,OCTV*%
X73620000Y-53240000D03*
%TO.P,U3,9*%
X73620000Y-50700000D03*
%TO.P,U3,10*%
%TO.N,N$27*%
X73620000Y-48160000D03*
%TO.P,U3,11*%
%TO.N,GND*%
X73620000Y-45620000D03*
%TO.P,U3,12*%
%TO.N,N$28*%
X73620000Y-43080000D03*
%TO.P,U3,13*%
%TO.N,VOFF*%
X73620000Y-40540000D03*
%TO.P,U3,14*%
X73620000Y-38000000D03*
%TD*%
%TO.P,C15,1*%
%TO.N,N$26*%
X71000000Y-91000000D03*
%TO.P,C15,2*%
%TO.N,N$27*%
X76000000Y-91000000D03*
%TD*%
%TO.P,C25,1*%
%TO.N,VCC*%
X138000000Y-24000000D03*
%TO.P,C25,2*%
%TO.N,GND*%
X143000000Y-24000000D03*
%TD*%
%TO.P,C20,1*%
%TO.N,VCC*%
X48000000Y-24000000D03*
%TO.P,C20,2*%
%TO.N,GND*%
X53000000Y-24000000D03*
%TD*%
%TO.P,R20,1*%
%TO.N,N$18*%
X53000000Y-91000000D03*
%TO.P,R20,2*%
%TO.N,N$19*%
X55540000Y-91000000D03*
%TD*%
D11*
%TO.P,D10,1*%
%TO.N,N$11*%
X71000000Y-82000000D03*
D10*
%TO.P,D10,2*%
%TO.N,N$13*%
X73540000Y-82000000D03*
%TD*%
D14*
%TO.P,J1,R*%
%TO.N,N/C*%
X17080000Y-67720000D03*
%TO.P,J1,S*%
%TO.N,GND*%
X6920000Y-67720000D03*
D15*
%TO.P,J1,T*%
%TO.N,SIN*%
X12000000Y-62000000D03*
%TD*%
D10*
%TO.P,R35,1*%
%TO.N,VBIAS*%
X89000000Y-100000000D03*
%TO.P,R35,2*%
%TO.N,N$32*%
X91540000Y-100000000D03*
%TD*%
%TO.P,R12,1*%
%TO.N,N$11*%
X125000000Y-82000000D03*
%TO.P,R12,2*%
%TO.N,FZ3*%
X127540000Y-82000000D03*
%TD*%
%TO.P,R33,1*%
%TO.N,N$30*%
X53000000Y-100000000D03*
%TO.P,R33,2*%
%TO.N,VOFF*%
X55540000Y-100000000D03*
%TD*%
D11*
%TO.P,D5,1*%
%TO.N,FZ2*%
X35000000Y-73000000D03*
D10*
%TO.P,D5,2*%
%TO.N,N$7*%
X37540000Y-73000000D03*
%TD*%
D16*
%TO.P,J3,1*%
%TO.N,GND*%
X163000000Y-13000000D03*
D17*
%TO.P,J3,2*%
%TO.N,VRAW*%
X157000000Y-13000000D03*
D18*
%TO.P,J3,3*%
%TO.N,N/C*%
X160000000Y-17700000D03*
%TD*%
D10*
%TO.P,R50,1*%
%TO.N,BODYF*%
X98000000Y-109000000D03*
%TO.P,R50,2*%
%TO.N,N$46*%
X100540000Y-109000000D03*
%TD*%
%TO.P,R48,1*%
%TO.N,N$43*%
X89000000Y-109000000D03*
%TO.P,R48,2*%
%TO.N,VREF*%
X91540000Y-109000000D03*
%TD*%
%TO.P,C17,1*%
%TO.N,N$41*%
X53000000Y-109000000D03*
%TO.P,C17,2*%
%TO.N,VREF*%
X58000000Y-109000000D03*
%TD*%
%TO.P,C18,1*%
%TO.N,N$44*%
X116000000Y-109000000D03*
%TO.P,C18,2*%
%TO.N,N$45*%
X121000000Y-109000000D03*
%TD*%
%TO.P,R1,1*%
%TO.N,VCC*%
X62000000Y-73000000D03*
%TO.P,R1,2*%
%TO.N,NREF*%
X64540000Y-73000000D03*
%TD*%
%TO.P,C24,1*%
%TO.N,VCC*%
X120000000Y-24000000D03*
%TO.P,C24,2*%
%TO.N,GND*%
X125000000Y-24000000D03*
%TD*%
%TO.P,C22,1*%
%TO.N,VCC*%
X84000000Y-24000000D03*
%TO.P,C22,2*%
%TO.N,GND*%
X89000000Y-24000000D03*
%TD*%
D19*
%TO.P,D1,1*%
%TO.N,VCC*%
X148000000Y-24000000D03*
D20*
%TO.P,D1,2*%
%TO.N,VRAW*%
X158160000Y-24000000D03*
%TD*%
D10*
%TO.P,R25,1*%
%TO.N,N$23*%
X134000000Y-91000000D03*
%TO.P,R25,2*%
%TO.N,N$21*%
X136540000Y-91000000D03*
%TD*%
%TO.P,R10,1*%
%TO.N,N$10*%
X71000000Y-73000000D03*
%TO.P,R10,2*%
%TO.N,VREF*%
X73540000Y-73000000D03*
%TD*%
D11*
%TO.P,D3,1*%
%TO.N,N$5*%
X143000000Y-64000000D03*
D10*
%TO.P,D3,2*%
%TO.N,FZ1*%
X145540000Y-64000000D03*
%TD*%
%TO.P,R23,1*%
%TO.N,N$20*%
X116000000Y-91000000D03*
%TO.P,R23,2*%
%TO.N,N$23*%
X118540000Y-91000000D03*
%TD*%
%TO.P,R5,1*%
%TO.N,N$1*%
X125000000Y-73000000D03*
%TO.P,R5,2*%
%TO.N,N$2*%
X127540000Y-73000000D03*
%TD*%
%TO.P,R52,1*%
%TO.N,N$46*%
X143000000Y-109000000D03*
%TO.P,R52,2*%
%TO.N,OPRE*%
X145540000Y-109000000D03*
%TD*%
%TO.P,R19,1*%
%TO.N,RABS_E*%
X44000000Y-91000000D03*
%TO.P,R19,2*%
%TO.N,N$18*%
X46540000Y-91000000D03*
%TD*%
D11*
%TO.P,U5,1*%
%TO.N,BP*%
X102000000Y-38000000D03*
D10*
%TO.P,U5,2*%
X102000000Y-40540000D03*
%TO.P,U5,3*%
%TO.N,N$38*%
X102000000Y-43080000D03*
%TO.P,U5,4*%
%TO.N,VCC*%
X102000000Y-45620000D03*
%TO.P,U5,5*%
%TO.N,N$41*%
X102000000Y-48160000D03*
%TO.P,U5,6*%
%TO.N,LP*%
X102000000Y-50700000D03*
%TO.P,U5,7*%
X102000000Y-53240000D03*
%TO.P,U5,8*%
%TO.N,BODYF*%
X109620000Y-53240000D03*
%TO.P,U5,9*%
X109620000Y-50700000D03*
%TO.P,U5,10*%
%TO.N,BP*%
X109620000Y-48160000D03*
%TO.P,U5,11*%
%TO.N,GND*%
X109620000Y-45620000D03*
%TO.P,U5,12*%
%TO.N,OCTV*%
X109620000Y-43080000D03*
%TO.P,U5,13*%
%TO.N,N$43*%
X109620000Y-40540000D03*
%TO.P,U5,14*%
%TO.N,N$42*%
X109620000Y-38000000D03*
%TD*%
D21*
%TO.P,RV4,1*%
%TO.N,VOFF*%
X135000000Y-13000000D03*
D13*
%TO.P,RV4,2*%
%TO.N,VBP*%
X135000000Y-15500000D03*
%TO.P,RV4,3*%
%TO.N,ECTL*%
X135000000Y-18000000D03*
%TO.P,RV4,4*%
%TO.N,N$36*%
X137500000Y-13000000D03*
%TO.P,RV4,5*%
%TO.N,N$35*%
X137500000Y-15500000D03*
%TO.P,RV4,6*%
%TO.N,N$36*%
X137500000Y-18000000D03*
%TD*%
D11*
%TO.P,U4,1*%
%TO.N,ECTL*%
X84000000Y-38000000D03*
D10*
%TO.P,U4,2*%
%TO.N,N$29*%
X84000000Y-40540000D03*
%TO.P,U4,3*%
%TO.N,N$30*%
X84000000Y-43080000D03*
%TO.P,U4,4*%
%TO.N,VCC*%
X84000000Y-45620000D03*
%TO.P,U4,5*%
%TO.N,VBP*%
X84000000Y-48160000D03*
%TO.P,U4,6*%
%TO.N,VBIAS*%
X84000000Y-50700000D03*
%TO.P,U4,7*%
X84000000Y-53240000D03*
%TO.P,U4,8*%
%TO.N,N$33*%
X91620000Y-53240000D03*
%TO.P,U4,9*%
%TO.N,N$34*%
X91620000Y-50700000D03*
%TO.P,U4,10*%
%TO.N,VREF*%
X91620000Y-48160000D03*
%TO.P,U4,11*%
%TO.N,GND*%
X91620000Y-45620000D03*
%TO.P,U4,12*%
%TO.N,VREF*%
X91620000Y-43080000D03*
%TO.P,U4,13*%
%TO.N,N$35*%
X91620000Y-40540000D03*
%TO.P,U4,14*%
%TO.N,HP*%
X91620000Y-38000000D03*
%TD*%
%TO.P,R6,1*%
%TO.N,N$3*%
X134000000Y-73000000D03*
%TO.P,R6,2*%
%TO.N,FZ1*%
X136540000Y-73000000D03*
%TD*%
%TO.P,R26,1*%
%TO.N,N$21*%
X143000000Y-91000000D03*
%TO.P,R26,2*%
%TO.N,N$26*%
X145540000Y-91000000D03*
%TD*%
%TO.P,C4,1*%
%TO.N,SIG*%
X89000000Y-64000000D03*
%TO.P,C4,2*%
%TO.N,N$1*%
X94000000Y-64000000D03*
%TD*%
%TO.P,R46,1*%
%TO.N,N$40*%
X44000000Y-118000000D03*
%TO.P,R46,2*%
%TO.N,VREF*%
X46540000Y-118000000D03*
%TD*%
D11*
%TO.P,U2,1*%
%TO.N,FZ3*%
X48000000Y-38000000D03*
D10*
%TO.P,U2,2*%
%TO.N,N$11*%
X48000000Y-40540000D03*
%TO.P,U2,3*%
%TO.N,VREF*%
X48000000Y-43080000D03*
%TO.P,U2,4*%
%TO.N,VCC*%
X48000000Y-45620000D03*
%TO.P,U2,5*%
%TO.N,VREF*%
X48000000Y-48160000D03*
%TO.P,U2,6*%
%TO.N,N$14*%
X48000000Y-50700000D03*
%TO.P,U2,7*%
%TO.N,N$17*%
X48000000Y-53240000D03*
%TO.P,U2,8*%
%TO.N,RABS_E*%
X55620000Y-53240000D03*
%TO.P,U2,9*%
%TO.N,N$15*%
X55620000Y-50700000D03*
%TO.P,U2,10*%
%TO.N,VREF*%
X55620000Y-48160000D03*
%TO.P,U2,11*%
%TO.N,GND*%
X55620000Y-45620000D03*
%TO.P,U2,12*%
%TO.N,N$19*%
X55620000Y-43080000D03*
%TO.P,U2,13*%
%TO.N,CV*%
X55620000Y-40540000D03*
%TO.P,U2,14*%
X55620000Y-38000000D03*
%TD*%
%TO.P,R49,1*%
%TO.N,N$45*%
X125000000Y-109000000D03*
%TO.P,R49,2*%
%TO.N,VREF*%
X127540000Y-109000000D03*
%TD*%
%TO.P,R38,1*%
%TO.N,N$33*%
X116000000Y-100000000D03*
%TO.P,R38,2*%
%TO.N,N$35*%
X118540000Y-100000000D03*
%TD*%
%TO.P,R17,1*%
%TO.N,N$16*%
X26000000Y-91000000D03*
%TO.P,R17,2*%
%TO.N,N$15*%
X28540000Y-91000000D03*
%TD*%
%TO.P,R34,1*%
%TO.N,VBIAS*%
X80000000Y-100000000D03*
%TO.P,R34,2*%
%TO.N,N$31*%
X82540000Y-100000000D03*
%TD*%
%TO.P,C3,1*%
%TO.N,SIN*%
X80000000Y-64000000D03*
%TO.P,C3,2*%
%TO.N,NP*%
X85000000Y-64000000D03*
%TD*%
%TO.P,C8,1*%
%TO.N,FZ2*%
X125000000Y-64000000D03*
%TO.P,C8,2*%
%TO.N,N$10*%
X130000000Y-64000000D03*
%TD*%
%TO.P,C19,1*%
%TO.N,VCC*%
X30000000Y-24000000D03*
%TO.P,C19,2*%
%TO.N,GND*%
X35000000Y-24000000D03*
%TD*%
D11*
%TO.P,C11,1*%
%TO.N,N$18*%
X44000000Y-64000000D03*
D10*
%TO.P,C11,2*%
%TO.N,VREF*%
X46500000Y-64000000D03*
%TD*%
D11*
%TO.P,C12,1*%
%TO.N,N$19*%
X53000000Y-82000000D03*
D10*
%TO.P,C12,2*%
%TO.N,VREF*%
X55500000Y-82000000D03*
%TD*%
%TO.P,C6,1*%
%TO.N,FZ1*%
X107000000Y-64000000D03*
%TO.P,C6,2*%
%TO.N,N$6*%
X112000000Y-64000000D03*
%TD*%
D11*
%TO.P,D4,1*%
%TO.N,N$3*%
X26000000Y-73000000D03*
D10*
%TO.P,D4,2*%
%TO.N,N$5*%
X28540000Y-73000000D03*
%TD*%
%TO.P,R14,1*%
%TO.N,SIG*%
X80000000Y-73000000D03*
%TO.P,R14,2*%
%TO.N,N$14*%
X82540000Y-73000000D03*
%TD*%
%TO.P,R30,1*%
%TO.N,VREF*%
X62000000Y-100000000D03*
%TO.P,R30,2*%
%TO.N,N$29*%
X64540000Y-100000000D03*
%TD*%
%TO.P,C21,1*%
%TO.N,VCC*%
X66000000Y-24000000D03*
%TO.P,C21,2*%
%TO.N,GND*%
X71000000Y-24000000D03*
%TD*%
%TO.P,R36,1*%
%TO.N,FZ*%
X98000000Y-100000000D03*
%TO.P,R36,2*%
%TO.N,N$34*%
X100540000Y-100000000D03*
%TD*%
D11*
%TO.P,D6,1*%
%TO.N,N$9*%
X44000000Y-73000000D03*
D10*
%TO.P,D6,2*%
%TO.N,FZ2*%
X46540000Y-73000000D03*
%TD*%
%TO.P,R42,1*%
%TO.N,N$36*%
X143000000Y-100000000D03*
%TO.P,R42,2*%
%TO.N,N$35*%
X145540000Y-100000000D03*
%TD*%
%TO.P,R32,1*%
%TO.N,CV*%
X62000000Y-91000000D03*
%TO.P,R32,2*%
%TO.N,N$30*%
X64540000Y-91000000D03*
%TD*%
%TO.P,R27,1*%
%TO.N,N$27*%
X26000000Y-100000000D03*
%TO.P,R27,2*%
%TO.N,VREF*%
X28540000Y-100000000D03*
%TD*%
%TO.P,R51,1*%
%TO.N,OCTF*%
X134000000Y-109000000D03*
%TO.P,R51,2*%
%TO.N,N$46*%
X136540000Y-109000000D03*
%TD*%
%TO.P,R16,1*%
%TO.N,SIG*%
X89000000Y-73000000D03*
%TO.P,R16,2*%
%TO.N,N$15*%
X91540000Y-73000000D03*
%TD*%
D11*
%TO.P,D9,1*%
%TO.N,N$13*%
X107000000Y-82000000D03*
D10*
%TO.P,D9,2*%
%TO.N,FZ3*%
X109540000Y-82000000D03*
%TD*%
%TO.P,C9,1*%
%TO.N,N$11*%
X62000000Y-82000000D03*
%TO.P,C9,2*%
%TO.N,FZ3*%
X67000000Y-82000000D03*
%TD*%
%TO.P,R2,1*%
%TO.N,NREF*%
X98000000Y-73000000D03*
%TO.P,R2,2*%
%TO.N,GND*%
X100540000Y-73000000D03*
%TD*%
D11*
%TO.P,D14,1*%
%TO.N,N$25*%
X89000000Y-91000000D03*
D10*
%TO.P,D14,2*%
%TO.N,N$24*%
X91540000Y-91000000D03*
%TD*%
D11*
%TO.P,D2,1*%
%TO.N,FZ1*%
X134000000Y-64000000D03*
D10*
%TO.P,D2,2*%
%TO.N,N$3*%
X136540000Y-64000000D03*
%TD*%
D11*
%TO.P,U1,1*%
%TO.N,VREF*%
X30000000Y-38000000D03*
D10*
%TO.P,U1,2*%
X30000000Y-40540000D03*
%TO.P,U1,3*%
%TO.N,NREF*%
X30000000Y-43080000D03*
%TO.P,U1,4*%
%TO.N,VCC*%
X30000000Y-45620000D03*
%TO.P,U1,5*%
%TO.N,NP*%
X30000000Y-48160000D03*
%TO.P,U1,6*%
%TO.N,SIG*%
X30000000Y-50700000D03*
%TO.P,U1,7*%
X30000000Y-53240000D03*
%TO.P,U1,8*%
%TO.N,FZ1*%
X37620000Y-53240000D03*
%TO.P,U1,9*%
%TO.N,N$3*%
X37620000Y-50700000D03*
%TO.P,U1,10*%
%TO.N,VREF*%
X37620000Y-48160000D03*
%TO.P,U1,11*%
%TO.N,GND*%
X37620000Y-45620000D03*
%TO.P,U1,12*%
%TO.N,VREF*%
X37620000Y-43080000D03*
%TO.P,U1,13*%
%TO.N,N$7*%
X37620000Y-40540000D03*
%TO.P,U1,14*%
%TO.N,FZ2*%
X37620000Y-38000000D03*
%TD*%
%TO.P,R29,1*%
%TO.N,N$28*%
X44000000Y-100000000D03*
%TO.P,R29,2*%
%TO.N,GND*%
X46540000Y-100000000D03*
%TD*%
D11*
%TO.P,D12,1*%
%TO.N,N$17*%
X89000000Y-82000000D03*
D10*
%TO.P,D12,2*%
%TO.N,N$16*%
X91540000Y-82000000D03*
%TD*%
D11*
%TO.P,U6,1*%
%TO.N,OCTF*%
X120000000Y-38000000D03*
D10*
%TO.P,U6,2*%
X120000000Y-40540000D03*
%TO.P,U6,3*%
%TO.N,N$45*%
X120000000Y-43080000D03*
%TO.P,U6,4*%
%TO.N,VCC*%
X120000000Y-45620000D03*
%TO.P,U6,5*%
%TO.N,VREF*%
X120000000Y-48160000D03*
%TO.P,U6,6*%
%TO.N,N$46*%
X120000000Y-50700000D03*
%TO.P,U6,7*%
%TO.N,OPRE*%
X120000000Y-53240000D03*
%TO.P,U6,8*%
%TO.N,OUT*%
X127620000Y-53240000D03*
%TO.P,U6,9*%
X127620000Y-50700000D03*
%TO.P,U6,10*%
%TO.N,N$47*%
X127620000Y-48160000D03*
%TO.P,U6,11*%
%TO.N,GND*%
X127620000Y-45620000D03*
%TO.P,U6,12*%
%TO.N,VREF*%
X127620000Y-43080000D03*
%TO.P,U6,13*%
%TO.N,N$48*%
X127620000Y-40540000D03*
%TO.P,U6,14*%
X127620000Y-38000000D03*
%TD*%
%TO.P,R15,1*%
%TO.N,N$14*%
X143000000Y-82000000D03*
%TO.P,R15,2*%
%TO.N,N$16*%
X145540000Y-82000000D03*
%TD*%
%TO.P,R18,1*%
%TO.N,N$15*%
X35000000Y-91000000D03*
%TO.P,R18,2*%
%TO.N,RABS_E*%
X37540000Y-91000000D03*
%TD*%
%TO.P,R43,1*%
%TO.N,HP*%
X26000000Y-109000000D03*
%TO.P,R43,2*%
%TO.N,N$37*%
X28540000Y-109000000D03*
%TD*%
D12*
%TO.P,RV3,1*%
%TO.N,N$42*%
X100000000Y-13000000D03*
D13*
%TO.P,RV3,2*%
%TO.N,N$44*%
X100000000Y-15500000D03*
%TO.P,RV3,3*%
%TO.N,VREF*%
X100000000Y-18000000D03*
%TD*%
D10*
%TO.P,R7,1*%
%TO.N,N$6*%
X143000000Y-73000000D03*
%TO.P,R7,2*%
%TO.N,VREF*%
X145540000Y-73000000D03*
%TD*%
D22*
%TO.N,N$20*%
X60683000Y-91346000D03*
%TO.N,FZ3*%
X61032800Y-44755400D03*
%TO.N,FZ*%
X56218400Y-93279600D03*
X132581200Y-91438400D03*
%TO.N,HP*%
X90270100Y-101764800D03*
%TO.N,NREF*%
X64519400Y-59699600D03*
%TO.N,GND*%
X34412800Y-45619900D03*
%TO.N,N$24*%
X93439300Y-92980100D03*
%TO.N,N$23*%
X114554000Y-60599100D03*
%TO.N,N$2*%
X79299200Y-70331500D03*
%TO.N,N$3*%
X37724800Y-62776700D03*
%TO.N,LP*%
X113764100Y-54735400D03*
%TO.N,BP*%
X96824600Y-105266100D03*
%TO.N,N$31*%
X134868100Y-92756900D03*
%TO.N,N$37*%
X132803100Y-102154400D03*
%TO.N,N$38*%
X96824600Y-103325400D03*
%TO.N,VCC*%
X92725900Y-44430900D03*
%TO.N,N$41*%
X75186400Y-54467300D03*
%TO.N,N$32*%
X144713500Y-98012100D03*
%TO.N,N$1*%
X98531800Y-68933000D03*
%TO.N,OPRE*%
X42545100Y-45819100D03*
%TO.N,N$47*%
X114352500Y-16750000D03*
%TO.N,NP*%
X87560900Y-69098700D03*
%TO.N,N$14*%
X77753700Y-56667100D03*
%TO.N,N$17*%
X78474400Y-57328500D03*
%TO.N,N$28*%
X61042800Y-98418800D03*
%TO.N,N$21*%
X129530800Y-59517200D03*
%TO.N,N$30*%
X84251500Y-86384300D03*
%TO.N,N$15*%
X58660400Y-74166000D03*
%TD*%
%TO.N,N$7*%
D23*
X45334000Y-73384400D02*
X46066800Y-74117200D01*
X38655500Y-71884500D02*
X44811200Y-71884500D01*
X44811200Y-71884500D02*
X45334000Y-72407300D01*
X28540000Y-82000000D02*
X35000000Y-82000000D01*
X114475300Y-62475300D02*
X116000000Y-64000000D01*
X107417700Y-66413100D02*
X111355500Y-62475300D01*
X46066800Y-74117200D02*
X51882800Y-74117200D01*
X51882800Y-74117200D02*
X53000000Y-73000000D01*
X111355500Y-62475300D02*
X114475300Y-62475300D01*
X59586900Y-66413100D02*
X107417700Y-66413100D01*
X53000000Y-73000000D02*
X59586900Y-66413100D01*
X45334000Y-72407300D02*
X45334000Y-73384400D01*
X37540000Y-73000000D02*
X38655500Y-71884500D01*
%TO.N,FZ2*%
X107261900Y-65955600D02*
X53584400Y-65955600D01*
X36529900Y-71470100D02*
X35000000Y-73000000D01*
X46540000Y-73000000D02*
X45010100Y-71470100D01*
X111155200Y-62062300D02*
X107261900Y-65955600D01*
X119062300Y-62062300D02*
X111155200Y-62062300D01*
X125000000Y-64000000D02*
X121000000Y-64000000D01*
X45010100Y-71470100D02*
X36529900Y-71470100D01*
X53584400Y-65955600D02*
X46540000Y-73000000D01*
X121000000Y-64000000D02*
X119062300Y-62062300D01*
%TO.N,N$20*%
X61444200Y-92107200D02*
X60683000Y-91346000D01*
X114898300Y-89898300D02*
X99101700Y-89898300D01*
X99101700Y-89898300D02*
X98000000Y-91000000D01*
X116000000Y-91000000D02*
X114898300Y-89898300D01*
X74175500Y-89883900D02*
X71952200Y-92107200D01*
X96883900Y-89883900D02*
X74175500Y-89883900D01*
X98000000Y-91000000D02*
X96883900Y-89883900D01*
X71952200Y-92107200D02*
X61444200Y-92107200D01*
%TO.N,N$22*%
X107000000Y-91000000D02*
X100540000Y-91000000D01*
X80000000Y-91000000D02*
X81170100Y-92170100D01*
X99369900Y-92170100D02*
X100540000Y-91000000D01*
X81170100Y-92170100D02*
X99369900Y-92170100D01*
%TO.N,FZ3*%
X99102600Y-80897400D02*
X102507300Y-80897400D01*
X58087400Y-41810000D02*
X61032800Y-44755400D01*
X102507300Y-80897400D02*
X104730400Y-83120500D01*
X68110500Y-80889500D02*
X67000000Y-82000000D01*
X104730400Y-83120500D02*
X108419500Y-83120500D01*
X116444500Y-83113600D02*
X117270000Y-82288100D01*
X126437500Y-80897500D02*
X127540000Y-82000000D01*
X72129000Y-81166300D02*
X71852200Y-80889500D01*
X51810000Y-41810000D02*
X58087400Y-41810000D01*
X98000000Y-82000000D02*
X99102600Y-80897400D01*
X98000000Y-82000000D02*
X96069000Y-80069000D01*
X117270000Y-81680700D02*
X118053200Y-80897500D01*
X96069000Y-80069000D02*
X77499300Y-80069000D01*
X71852200Y-80889500D02*
X68110500Y-80889500D01*
X117270000Y-82288100D02*
X117270000Y-81680700D01*
X134000000Y-82000000D02*
X127540000Y-82000000D01*
X110653600Y-83113600D02*
X116444500Y-83113600D01*
X74448400Y-83119900D02*
X73041800Y-83119900D01*
X72129000Y-82207100D02*
X72129000Y-81166300D01*
X109540000Y-82000000D02*
X110653600Y-83113600D01*
X48000000Y-38000000D02*
X51810000Y-41810000D01*
X118053200Y-80897500D02*
X126437500Y-80897500D01*
X77499300Y-80069000D02*
X74448400Y-83119900D01*
X108419500Y-83120500D02*
X109540000Y-82000000D01*
X73041800Y-83119900D02*
X72129000Y-82207100D01*
%TO.N,FZ*%
X132581200Y-91438400D02*
X128718800Y-95300800D01*
X99772600Y-95300800D02*
X98000000Y-97073400D01*
X36104100Y-65104100D02*
X35000000Y-64000000D01*
X51895900Y-65104100D02*
X36104100Y-65104100D01*
X98000000Y-97073400D02*
X60012200Y-97073400D01*
X60012200Y-97073400D02*
X56218400Y-93279600D01*
X98000000Y-100000000D02*
X98000000Y-97073400D01*
X128718800Y-95300800D02*
X99772600Y-95300800D01*
X53000000Y-64000000D02*
X51895900Y-65104100D01*
%TO.N,N$10*%
X98779400Y-78205700D02*
X112205700Y-78205700D01*
X112205700Y-78205700D02*
X116000000Y-82000000D01*
X92063500Y-71489800D02*
X98779400Y-78205700D01*
X71000000Y-73000000D02*
X72510200Y-71489800D01*
X72510200Y-71489800D02*
X92063500Y-71489800D01*
%TO.N,N$11*%
X102080100Y-83540100D02*
X100540000Y-82000000D01*
X116999900Y-83540100D02*
X102080100Y-83540100D01*
X95843500Y-83117300D02*
X93198400Y-80472200D01*
X99422700Y-83117300D02*
X95843500Y-83117300D01*
X125000000Y-82000000D02*
X118540000Y-82000000D01*
X79524800Y-80472200D02*
X76455700Y-83541300D01*
X93198400Y-80472200D02*
X79524800Y-80472200D01*
X100540000Y-82000000D02*
X99422700Y-83117300D01*
X118540000Y-82000000D02*
X116999900Y-83540100D01*
X69895400Y-83104600D02*
X71000000Y-82000000D01*
X76455700Y-83541300D02*
X72541300Y-83541300D01*
X63104600Y-83104600D02*
X69895400Y-83104600D01*
X72541300Y-83541300D02*
X71000000Y-82000000D01*
X62000000Y-82000000D02*
X63104600Y-83104600D01*
%TO.N,N$35*%
X135125700Y-98874300D02*
X134000000Y-100000000D01*
X145540000Y-100000000D02*
X144414300Y-98874300D01*
X119641700Y-98898300D02*
X126438300Y-98898300D01*
X136250000Y-16750000D02*
X136250000Y-18468200D01*
X136250000Y-18468200D02*
X132966700Y-21751500D01*
X137500000Y-15500000D02*
X136250000Y-16750000D01*
X126438300Y-98898300D02*
X127540000Y-100000000D01*
X93059800Y-36353800D02*
X93059800Y-39100200D01*
X132966700Y-21751500D02*
X107662100Y-21751500D01*
X144414300Y-98874300D02*
X135125700Y-98874300D01*
X134000000Y-100000000D02*
X127540000Y-100000000D01*
X118540000Y-100000000D02*
X119641700Y-98898300D01*
X93059800Y-39100200D02*
X91620000Y-40540000D01*
X107662100Y-21751500D02*
X93059800Y-36353800D01*
%TO.N,HP*%
X90270100Y-101935300D02*
X98895700Y-101935300D01*
X90270100Y-101935300D02*
X90270100Y-101764800D01*
X98895700Y-101935300D02*
X99131300Y-101699700D01*
X132554000Y-101552700D02*
X134987300Y-101552700D01*
X33064700Y-101935300D02*
X90270100Y-101935300D01*
X134987300Y-101552700D02*
X136540000Y-100000000D01*
X26000000Y-109000000D02*
X33064700Y-101935300D01*
X132407000Y-101699700D02*
X132554000Y-101552700D01*
X99131300Y-101699700D02*
X132407000Y-101699700D01*
%TO.N,N$25*%
X89000000Y-91000000D02*
X82540000Y-91000000D01*
%TO.N,NREF*%
X28861300Y-46058100D02*
X29861500Y-47058300D01*
X95133600Y-73000000D02*
X98000000Y-73000000D01*
X30465600Y-47058300D02*
X31270000Y-47862700D01*
X31270000Y-47862700D02*
X31270000Y-48482900D01*
X30000000Y-43080000D02*
X28861300Y-44218700D01*
X29861500Y-47058300D02*
X30465600Y-47058300D01*
X66460100Y-71079900D02*
X93213500Y-71079900D01*
X31270000Y-48482900D02*
X42486700Y-59699600D01*
X93213500Y-71079900D02*
X95133600Y-73000000D01*
X28861300Y-44218700D02*
X28861300Y-46058100D01*
X64540000Y-73000000D02*
X66460100Y-71079900D01*
X42486700Y-59699600D02*
X64519400Y-59699600D01*
%TO.N,GND*%
X37620000Y-45619900D02*
X38726200Y-44513700D01*
X62691300Y-45620000D02*
X63795800Y-44515500D01*
X127620000Y-46731200D02*
X110731200Y-46731200D01*
X38726200Y-44513700D02*
X54513700Y-44513700D01*
X73620000Y-45620000D02*
X67558100Y-45620000D01*
X143000000Y-24000000D02*
X141898300Y-25101700D01*
X9128300Y-65511700D02*
X26988300Y-65511700D01*
X54513700Y-44513700D02*
X55620000Y-45620000D01*
X55620000Y-45620000D02*
X62691300Y-45620000D01*
X63795800Y-25101700D02*
X63795800Y-44515500D01*
X108104900Y-25104900D02*
X107000000Y-24000000D01*
X92392300Y-45620000D02*
X91620000Y-45620000D01*
X51895100Y-25104900D02*
X36104900Y-25104900D01*
X108104900Y-25104900D02*
X108104900Y-29907400D01*
X37620000Y-45619900D02*
X34412800Y-45619900D01*
X66453600Y-44515500D02*
X63795800Y-44515500D01*
X127620000Y-45620000D02*
X127620000Y-46731200D01*
X126101700Y-25101700D02*
X125000000Y-24000000D01*
X141898300Y-25101700D02*
X126101700Y-25101700D01*
X6920000Y-67720000D02*
X9128300Y-65511700D01*
X36104900Y-25104900D02*
X35000000Y-24000000D01*
X63795800Y-25101700D02*
X54101700Y-25101700D01*
X123895100Y-25104900D02*
X108104900Y-25104900D01*
X53000000Y-24000000D02*
X51895100Y-25104900D01*
X89000000Y-24000000D02*
X87894800Y-25105200D01*
X71000000Y-24000000D02*
X69898300Y-25101700D01*
X72105200Y-25105200D02*
X71000000Y-24000000D01*
X37620000Y-45620000D02*
X37620000Y-45619900D01*
X132132000Y-50700000D02*
X138000000Y-50700000D01*
X67558100Y-45620000D02*
X66453600Y-44515500D01*
X125000000Y-24000000D02*
X123895100Y-25104900D01*
X128163200Y-46731200D02*
X132132000Y-50700000D01*
X26988300Y-65511700D02*
X28500000Y-64000000D01*
X110731200Y-46731200D02*
X109620000Y-45620000D01*
X87894800Y-25105200D02*
X72105200Y-25105200D01*
X127620000Y-46731200D02*
X128163200Y-46731200D01*
X108104900Y-29907400D02*
X92392300Y-45620000D01*
X69898300Y-25101700D02*
X63795800Y-25101700D01*
X54101700Y-25101700D02*
X53000000Y-24000000D01*
X145620000Y-53240000D02*
X138000000Y-53240000D01*
%TO.N,N$43*%
X89000000Y-109000000D02*
X82540000Y-109000000D01*
%TO.N,N$24*%
X110664400Y-92124400D02*
X109540000Y-91000000D01*
X107559900Y-92980100D02*
X109540000Y-91000000D01*
X123875600Y-92124400D02*
X110664400Y-92124400D01*
X125000000Y-91000000D02*
X123875600Y-92124400D01*
X93439300Y-92980100D02*
X107559900Y-92980100D01*
%TO.N,N$23*%
X91856700Y-56065400D02*
X67235500Y-56065400D01*
X126425400Y-89885400D02*
X127540000Y-91000000D01*
X114554000Y-60599100D02*
X110430400Y-56475500D01*
X134000000Y-91000000D02*
X133833300Y-90833300D01*
X92266800Y-56475500D02*
X91856700Y-56065400D01*
X64882000Y-51818000D02*
X66000000Y-50700000D01*
X133833300Y-90833300D02*
X127706700Y-90833300D01*
X118540000Y-91000000D02*
X119654600Y-89885400D01*
X67235500Y-56065400D02*
X64882000Y-53711900D01*
X119654600Y-89885400D02*
X126425400Y-89885400D01*
X127706700Y-90833300D02*
X127540000Y-91000000D01*
X110430400Y-56475500D02*
X92266800Y-56475500D01*
X64882000Y-53711900D02*
X64882000Y-51818000D01*
%TO.N,N$2*%
X101638700Y-71363700D02*
X95150100Y-71363700D01*
X94117900Y-70331500D02*
X79299200Y-70331500D01*
X95150100Y-71363700D02*
X94117900Y-70331500D01*
X127540000Y-73000000D02*
X125955800Y-74584200D01*
X104859200Y-74584200D02*
X101638700Y-71363700D01*
X125955800Y-74584200D02*
X104859200Y-74584200D01*
%TO.N,N$3*%
X74350800Y-62419300D02*
X38082200Y-62419300D01*
X128736200Y-65121800D02*
X125275000Y-61660600D01*
X38082200Y-62419300D02*
X37724800Y-62776700D01*
X37724800Y-62776800D02*
X37724800Y-62776700D01*
X110958300Y-61660600D02*
X107509500Y-65109400D01*
X98000000Y-64000000D02*
X96465900Y-65534100D01*
X125275000Y-61660600D02*
X110958300Y-61660600D01*
X107509500Y-65109400D02*
X99109400Y-65109400D01*
X34641300Y-62776800D02*
X37724800Y-62776800D01*
X96465900Y-65534100D02*
X77465600Y-65534100D01*
X135418200Y-65121800D02*
X128736200Y-65121800D01*
X99109400Y-65109400D02*
X98000000Y-64000000D01*
X26000000Y-73000000D02*
X26000000Y-71418100D01*
X136540000Y-64000000D02*
X135418200Y-65121800D01*
X77465600Y-65534100D02*
X74350800Y-62419300D01*
X26000000Y-71418100D02*
X34641300Y-62776800D01*
%TO.N,N$29*%
X64540000Y-100000000D02*
X71000000Y-100000000D01*
%TO.N,ECTL*%
X84000000Y-38000000D02*
X104000000Y-18000000D01*
X104000000Y-18000000D02*
X135000000Y-18000000D01*
%TO.N,LP*%
X113764100Y-54735400D02*
X103495400Y-54735400D01*
X103495400Y-54735400D02*
X102000000Y-53240000D01*
%TO.N,BP*%
X71000000Y-109000000D02*
X69897200Y-110102800D01*
X69897200Y-110102800D02*
X63102800Y-110102800D01*
X74733900Y-105266100D02*
X96824600Y-105266100D01*
X63102800Y-110102800D02*
X62000000Y-109000000D01*
X71000000Y-109000000D02*
X74733900Y-105266100D01*
%TO.N,N$36*%
X68875600Y-104664400D02*
X138335600Y-104664400D01*
X64540000Y-109000000D02*
X68875600Y-104664400D01*
X138335600Y-104664400D02*
X143000000Y-100000000D01*
%TO.N,N$31*%
X131881200Y-95743800D02*
X103179500Y-95743800D01*
X103179500Y-95743800D02*
X99314900Y-99608400D01*
X98479100Y-101103200D02*
X94201300Y-101103200D01*
X134868100Y-92756900D02*
X131881200Y-95743800D01*
X99314900Y-100267400D02*
X98479100Y-101103200D01*
X91935800Y-98837700D02*
X83702300Y-98837700D01*
X94201300Y-101103200D02*
X91935800Y-98837700D01*
X99314900Y-99608400D02*
X99314900Y-100267400D01*
X83702300Y-98837700D02*
X82540000Y-100000000D01*
%TO.N,N$37*%
X35000000Y-114542200D02*
X41070900Y-114542200D01*
X35000000Y-114542200D02*
X34082200Y-114542200D01*
X35000000Y-118000000D02*
X35000000Y-114542200D01*
X51371400Y-104241700D02*
X130715800Y-104241700D01*
X130715800Y-104241700D02*
X132803100Y-102154400D01*
X41070900Y-114542200D02*
X51371400Y-104241700D01*
X34082200Y-114542200D02*
X28540000Y-109000000D01*
%TO.N,VREF*%
X40000000Y-64000000D02*
X41152600Y-62847400D01*
X84862100Y-44189900D02*
X67109900Y-44189900D01*
X145620000Y-45620000D02*
X138000000Y-45620000D01*
X92641700Y-110101700D02*
X91540000Y-109000000D01*
X144424300Y-71884300D02*
X145540000Y-73000000D01*
X60537800Y-76962200D02*
X55500000Y-82000000D01*
X130160000Y-45620000D02*
X127620000Y-43080000D01*
X109540000Y-73000000D02*
X110641700Y-71898300D01*
X48000000Y-48160000D02*
X55620000Y-48160000D01*
X38692400Y-119152400D02*
X37540000Y-118000000D01*
X85972000Y-43080000D02*
X84862100Y-44189900D01*
X111178100Y-48160000D02*
X110073600Y-47055500D01*
X120000000Y-48160000D02*
X111178100Y-48160000D01*
X126438300Y-110101700D02*
X92641700Y-110101700D01*
X118540000Y-73000000D02*
X119655700Y-71884300D01*
X69577800Y-76962200D02*
X60537800Y-76962200D01*
X92724500Y-47055500D02*
X91620000Y-48160000D01*
X46540000Y-118000000D02*
X45387600Y-119152400D01*
X110641700Y-71898300D02*
X117438300Y-71898300D01*
X67109900Y-44189900D02*
X66000000Y-43080000D01*
X127540000Y-109000000D02*
X126438300Y-110101700D01*
X138000000Y-45620000D02*
X130160000Y-45620000D01*
X45347400Y-62847400D02*
X46500000Y-64000000D01*
X110073600Y-47055500D02*
X92724500Y-47055500D01*
X37620000Y-43080000D02*
X48000000Y-43080000D01*
X117438300Y-71898300D02*
X118540000Y-73000000D01*
X45387600Y-119152400D02*
X38692400Y-119152400D01*
X35080000Y-40540000D02*
X37620000Y-43080000D01*
X30000000Y-40540000D02*
X35080000Y-40540000D01*
X91620000Y-43080000D02*
X85972000Y-43080000D01*
X73540000Y-73000000D02*
X69577800Y-76962200D01*
X66000000Y-48160000D02*
X55620000Y-48160000D01*
X119655700Y-71884300D02*
X144424300Y-71884300D01*
X41152600Y-62847400D02*
X45347400Y-62847400D01*
%TO.N,N$38*%
X116914600Y-41968700D02*
X103111300Y-41968700D01*
X49674600Y-103325400D02*
X44000000Y-109000000D01*
X138000000Y-48160000D02*
X131719400Y-48160000D01*
X127907900Y-44348500D02*
X119294400Y-44348500D01*
X96824600Y-103325400D02*
X49674600Y-103325400D01*
X131719400Y-48160000D02*
X127907900Y-44348500D01*
X119294400Y-44348500D02*
X116914600Y-41968700D01*
X103111300Y-41968700D02*
X102000000Y-43080000D01*
%TO.N,VCC*%
X111590000Y-45620000D02*
X120000000Y-45620000D01*
X92725900Y-44430900D02*
X90679000Y-44430900D01*
X48000000Y-24000000D02*
X49101700Y-22898300D01*
X147455800Y-24000000D02*
X147455800Y-48864200D01*
X90679000Y-44430900D02*
X89489900Y-45620000D01*
X147455800Y-24000000D02*
X148000000Y-24000000D01*
X64898300Y-46721700D02*
X49101700Y-46721700D01*
X103104500Y-44515500D02*
X110485500Y-44515500D01*
X102000000Y-45620000D02*
X103104500Y-44515500D01*
X138000000Y-24000000D02*
X139102000Y-22898000D01*
X31111200Y-46731200D02*
X30000000Y-45620000D01*
X139102000Y-22898000D02*
X146353800Y-22898000D01*
X48000000Y-45620000D02*
X47569100Y-45189100D01*
X110485500Y-44515500D02*
X111590000Y-45620000D01*
X49101700Y-22898300D02*
X64898300Y-22898300D01*
X146353800Y-22898000D02*
X147455800Y-24000000D01*
X46892400Y-22892400D02*
X31107600Y-22892400D01*
X64898300Y-22898300D02*
X66000000Y-24000000D01*
X67104600Y-22895400D02*
X66000000Y-24000000D01*
X121118800Y-22881200D02*
X120000000Y-24000000D01*
X66000000Y-45620000D02*
X64898300Y-46721700D01*
X82888800Y-46731200D02*
X84000000Y-45620000D01*
X147455800Y-48864200D02*
X145620000Y-50700000D01*
X89489900Y-45620000D02*
X84000000Y-45620000D01*
X49101700Y-46721700D02*
X48000000Y-45620000D01*
X138000000Y-24000000D02*
X136881200Y-22881200D01*
X40288500Y-46731200D02*
X31111200Y-46731200D01*
X84000000Y-24000000D02*
X82895400Y-22895400D01*
X82895400Y-22895400D02*
X67104600Y-22895400D01*
X67111200Y-46731200D02*
X82888800Y-46731200D01*
X66000000Y-45620000D02*
X67111200Y-46731200D01*
X47569100Y-45189100D02*
X41830600Y-45189100D01*
X136881200Y-22881200D02*
X121118800Y-22881200D01*
X48000000Y-24000000D02*
X46892400Y-22892400D01*
X31107600Y-22892400D02*
X30000000Y-24000000D01*
X41830600Y-45189100D02*
X40288500Y-46731200D01*
%TO.N,N$41*%
X145620000Y-48160000D02*
X141971500Y-51808500D01*
X141971500Y-51808500D02*
X104718800Y-51808500D01*
X104718800Y-51808500D02*
X102000000Y-49089700D01*
X96622400Y-54467300D02*
X75186400Y-54467300D01*
X102000000Y-49089700D02*
X102000000Y-48160000D01*
X102000000Y-49089700D02*
X96622400Y-54467300D01*
%TO.N,N$40*%
X66876000Y-115664000D02*
X46336000Y-115664000D01*
X73540000Y-109000000D02*
X66876000Y-115664000D01*
X46336000Y-115664000D02*
X44000000Y-118000000D01*
%TO.N,N$32*%
X117270000Y-99672600D02*
X118930500Y-98012100D01*
X98754500Y-101506400D02*
X98962900Y-101298000D01*
X116269200Y-101298000D02*
X117270000Y-100297200D01*
X93046400Y-101506400D02*
X98754500Y-101506400D01*
X91540000Y-100000000D02*
X93046400Y-101506400D01*
X117270000Y-100297200D02*
X117270000Y-99672600D01*
X118930500Y-98012100D02*
X144713500Y-98012100D01*
X98962900Y-101298000D02*
X116269200Y-101298000D01*
%TO.N,N$6*%
X141015200Y-66890900D02*
X114890900Y-66890900D01*
X146676900Y-72552600D02*
X141015200Y-66890900D01*
X146676900Y-73487200D02*
X146676900Y-72552600D01*
X144107000Y-74107000D02*
X146057100Y-74107000D01*
X52814200Y-78935300D02*
X63418200Y-68331300D01*
X29064700Y-78935300D02*
X52814200Y-78935300D01*
X63418200Y-68331300D02*
X107668700Y-68331300D01*
X107668700Y-68331300D02*
X112000000Y-64000000D01*
X114890900Y-66890900D02*
X112000000Y-64000000D01*
X146057100Y-74107000D02*
X146676900Y-73487200D01*
X26000000Y-82000000D02*
X29064700Y-78935300D01*
X143000000Y-73000000D02*
X144107000Y-74107000D01*
%TO.N,OUT*%
X136380000Y-62000000D02*
X163000000Y-62000000D01*
X127620000Y-53240000D02*
X136380000Y-62000000D01*
%TO.N,N$1*%
X108270000Y-72690000D02*
X104513000Y-68933000D01*
X123874200Y-74125800D02*
X117125800Y-74125800D01*
X116000000Y-73000000D02*
X114855300Y-74144700D01*
X125000000Y-73000000D02*
X123874200Y-74125800D01*
X104513000Y-68933000D02*
X98531800Y-68933000D01*
X108270000Y-73288400D02*
X108270000Y-72690000D01*
X114855300Y-74144700D02*
X109126300Y-74144700D01*
X109126300Y-74144700D02*
X108270000Y-73288400D01*
X117125800Y-74125800D02*
X116000000Y-73000000D01*
%TO.N,OPRE*%
X117896300Y-55343700D02*
X103537800Y-55343700D01*
X73756100Y-55164400D02*
X68021700Y-49430000D01*
X68021700Y-49430000D02*
X46156000Y-49430000D01*
X103358500Y-55164400D02*
X73756100Y-55164400D01*
X120000000Y-53240000D02*
X117896300Y-55343700D01*
X46156000Y-49430000D02*
X42545100Y-45819100D01*
X103537800Y-55343700D02*
X103358500Y-55164400D01*
%TO.N,N$47*%
X31250000Y-16750000D02*
X114352500Y-16750000D01*
X30000000Y-15500000D02*
X31250000Y-16750000D01*
%TO.N,N$26*%
X72533700Y-89466300D02*
X71000000Y-91000000D01*
X145540000Y-91000000D02*
X144006300Y-89466300D01*
X144006300Y-89466300D02*
X72533700Y-89466300D01*
%TO.N,NP*%
X104962000Y-70962000D02*
X97094100Y-70962000D01*
X42141300Y-60301300D02*
X81301300Y-60301300D01*
X97094100Y-70962000D02*
X95230800Y-69098700D01*
X107000000Y-73000000D02*
X104962000Y-70962000D01*
X81301300Y-60301300D02*
X85000000Y-64000000D01*
X95230800Y-69098700D02*
X87560900Y-69098700D01*
X30000000Y-48160000D02*
X42141300Y-60301300D01*
%TO.N,FZ1*%
X144428500Y-62888500D02*
X135111500Y-62888500D01*
X109741100Y-61258900D02*
X107000000Y-64000000D01*
X131258900Y-61258900D02*
X109741100Y-61258900D01*
X103000000Y-64000000D02*
X96974100Y-57974100D01*
X96974100Y-57974100D02*
X42354100Y-57974100D01*
X103000000Y-64000000D02*
X107000000Y-64000000D01*
X145540000Y-64000000D02*
X144428500Y-62888500D01*
X135111500Y-62888500D02*
X134000000Y-64000000D01*
X134000000Y-64000000D02*
X131258900Y-61258900D01*
X42354100Y-57974100D02*
X37620000Y-53240000D01*
%TO.N,N$14*%
X48000000Y-50700000D02*
X53967100Y-56667100D01*
X81113900Y-80886100D02*
X92654000Y-80886100D01*
X53967100Y-56667100D02*
X77753700Y-56667100D01*
X92654000Y-80886100D02*
X95739000Y-83971100D01*
X95739000Y-83971100D02*
X141028900Y-83971100D01*
X80000000Y-82000000D02*
X81113900Y-80886100D01*
X141028900Y-83971100D02*
X143000000Y-82000000D01*
%TO.N,N$17*%
X52088500Y-57328500D02*
X78474400Y-57328500D01*
X48000000Y-53240000D02*
X52088500Y-57328500D01*
X89000000Y-82000000D02*
X82540000Y-82000000D01*
%TO.N,N$34*%
X100540000Y-100000000D02*
X107000000Y-100000000D01*
%TO.N,N$33*%
X116000000Y-100000000D02*
X109540000Y-100000000D01*
%TO.N,N$28*%
X61042800Y-98418800D02*
X45581200Y-98418800D01*
X45581200Y-98418800D02*
X44000000Y-100000000D01*
X44000000Y-100000000D02*
X37540000Y-100000000D01*
%TO.N,N$9*%
X44000000Y-73000000D02*
X45538500Y-74538500D01*
X54001500Y-74538500D02*
X55540000Y-73000000D01*
X45538500Y-74538500D02*
X54001500Y-74538500D01*
%TO.N,N$21*%
X68358600Y-55598600D02*
X92157800Y-55598600D01*
X66000000Y-53240000D02*
X68358600Y-55598600D01*
X92434500Y-55875300D02*
X125888900Y-55875300D01*
X143000000Y-91000000D02*
X136540000Y-91000000D01*
X92157800Y-55598600D02*
X92434500Y-55875300D01*
X125888900Y-55875300D02*
X129530800Y-59517200D01*
%TO.N,OCTV*%
X103965200Y-43080000D02*
X102695200Y-44350000D01*
X94855200Y-44350000D02*
X92315200Y-46890000D01*
X109620000Y-43080000D02*
X103965200Y-43080000D01*
X102695200Y-44350000D02*
X94855200Y-44350000D01*
X92315200Y-46890000D02*
X88561700Y-46890000D01*
X86021700Y-49430000D02*
X74890000Y-49430000D01*
X88561700Y-46890000D02*
X86021700Y-49430000D01*
X74890000Y-49430000D02*
X73620000Y-50700000D01*
%TO.N,N$27*%
X74486000Y-92514000D02*
X33486000Y-92514000D01*
X33486000Y-92514000D02*
X26000000Y-100000000D01*
X76000000Y-91000000D02*
X74486000Y-92514000D01*
%TO.N,VOFF*%
X80315000Y-31305000D02*
X73620000Y-38000000D01*
X102546600Y-17574100D02*
X88815700Y-31305000D01*
X135000000Y-13000000D02*
X130425900Y-17574100D01*
X130425900Y-17574100D02*
X102546600Y-17574100D01*
X88815700Y-31305000D02*
X80315000Y-31305000D01*
%TO.N,N$18*%
X46540000Y-91000000D02*
X53000000Y-91000000D01*
%TO.N,N$13*%
X107000000Y-82000000D02*
X104665800Y-79665800D01*
X75874200Y-79665800D02*
X73540000Y-82000000D01*
X104665800Y-79665800D02*
X75874200Y-79665800D01*
%TO.N,SIN*%
X78000000Y-62000000D02*
X80000000Y-64000000D01*
X12000000Y-62000000D02*
X78000000Y-62000000D01*
%TO.N,VBIAS*%
X80000000Y-100000000D02*
X81111300Y-101111300D01*
X81111300Y-101111300D02*
X87888700Y-101111300D01*
X87888700Y-101111300D02*
X89000000Y-100000000D01*
%TO.N,N$30*%
X64540000Y-91000000D02*
X69155700Y-86384300D01*
X69155700Y-86384300D02*
X84251500Y-86384300D01*
%TO.N,N$46*%
X143000000Y-109000000D02*
X136540000Y-109000000D01*
X136540000Y-109000000D02*
X135418500Y-107878500D01*
X101661500Y-107878500D02*
X100540000Y-109000000D01*
X135418500Y-107878500D02*
X101661500Y-107878500D01*
%TO.N,N$45*%
X125000000Y-109000000D02*
X121000000Y-109000000D01*
%TO.N,N$5*%
X28540000Y-73000000D02*
X30499900Y-74959900D01*
X107571200Y-66870800D02*
X111553700Y-62888300D01*
X30499900Y-74959900D02*
X55706200Y-74959900D01*
X115136400Y-65531800D02*
X141468200Y-65531800D01*
X111553700Y-62888300D02*
X112492900Y-62888300D01*
X63795300Y-66870800D02*
X107571200Y-66870800D01*
X55706200Y-74959900D02*
X63795300Y-66870800D01*
X141468200Y-65531800D02*
X143000000Y-64000000D01*
X112492900Y-62888300D02*
X115136400Y-65531800D01*
%TO.N,RABS_E*%
X37540000Y-91000000D02*
X44000000Y-91000000D01*
%TO.N,SIG*%
X30000000Y-53240000D02*
X37957100Y-61197100D01*
X87889400Y-65110600D02*
X89000000Y-64000000D01*
X80982100Y-73000100D02*
X82083700Y-74101700D01*
X80982100Y-73000000D02*
X80982100Y-73000100D01*
X37957100Y-61197100D02*
X80547700Y-61197100D01*
X87898300Y-74101700D02*
X89000000Y-73000000D01*
X80547700Y-61197100D02*
X84461200Y-65110600D01*
X80000000Y-73000000D02*
X80982100Y-73000000D01*
X82083700Y-74101700D02*
X87898300Y-74101700D01*
X84461200Y-65110600D02*
X87889400Y-65110600D01*
%TO.N,N$15*%
X37097800Y-88902200D02*
X43924200Y-88902200D01*
X35000000Y-91000000D02*
X37097800Y-88902200D01*
X71407600Y-74166000D02*
X72438300Y-73135300D01*
X58660400Y-74166000D02*
X71407600Y-74166000D01*
X35000000Y-91000000D02*
X28540000Y-91000000D01*
X43924200Y-88902200D02*
X58660400Y-74166000D01*
X73088200Y-71892900D02*
X90432900Y-71892900D01*
X90432900Y-71892900D02*
X91540000Y-73000000D01*
X72438300Y-72542800D02*
X73088200Y-71892900D01*
X72438300Y-73135300D02*
X72438300Y-72542800D01*
%TO.N,N$16*%
X143136300Y-84403700D02*
X145540000Y-82000000D01*
X91540000Y-82000000D02*
X87896900Y-85643100D01*
X27102300Y-92102300D02*
X26000000Y-91000000D01*
X91540000Y-82000000D02*
X93943700Y-84403700D01*
X93943700Y-84403700D02*
X143136300Y-84403700D01*
X87896900Y-85643100D02*
X63036800Y-85643100D01*
X56577600Y-92102300D02*
X27102300Y-92102300D01*
X63036800Y-85643100D02*
X56577600Y-92102300D01*
%TD*%
M02*
