%TF.GenerationSoftware,KiCad,Pcbnew,10.0.4*%
%TF.CreationDate,2026-06-26T14:33:37-04:00*%
%TF.ProjectId,duck,6475636b-2e6b-4696-9361-645f70636258,rev?*%
%TF.SameCoordinates,Original*%
%TF.FileFunction,Copper,L2,Bot*%
%TF.FilePolarity,Positive*%
%FSLAX46Y46*%
G04 Gerber Fmt 4.6, Leading zero omitted, Abs format (unit mm)*
G04 Created by KiCad (PCBNEW 10.0.4) date 2026-06-26 14:33:37*
%MOMM*%
%LPD*%
G01*
G04 APERTURE LIST*
G04 Aperture macros list*
%AMRoundRect*
0 Rectangle with rounded corners*
0 $1 Rounding radius*
0 $2 $3 $4 $5 $6 $7 $8 $9 X,Y pos of 4 corners*
0 Add a 4 corners polygon primitive as box body*
4,1,4,$2,$3,$4,$5,$6,$7,$8,$9,$2,$3,0*
0 Add four circle primitives for the rounded corners*
1,1,$1+$1,$2,$3*
1,1,$1+$1,$4,$5*
1,1,$1+$1,$6,$7*
1,1,$1+$1,$8,$9*
0 Add four rect primitives between the rounded corners*
20,1,$1+$1,$2,$3,$4,$5,0*
20,1,$1+$1,$4,$5,$6,$7,0*
20,1,$1+$1,$6,$7,$8,$9,0*
20,1,$1+$1,$8,$9,$2,$3,0*%
G04 Aperture macros list end*
%TA.AperFunction,ComponentPad*%
%ADD10C,1.600000*%
%TD*%
%TA.AperFunction,ComponentPad*%
%ADD11RoundRect,0.250000X-0.550000X-0.550000X0.550000X-0.550000X0.550000X0.550000X-0.550000X0.550000X0*%
%TD*%
%TA.AperFunction,ComponentPad*%
%ADD12RoundRect,0.250000X0.650000X0.650000X-0.650000X0.650000X-0.650000X-0.650000X0.650000X-0.650000X0*%
%TD*%
%TA.AperFunction,ComponentPad*%
%ADD13C,1.800000*%
%TD*%
%TA.AperFunction,ComponentPad*%
%ADD14C,3.400000*%
%TD*%
%TA.AperFunction,ComponentPad*%
%ADD15C,3.000000*%
%TD*%
%TA.AperFunction,ComponentPad*%
%ADD16R,3.500000X3.500000*%
%TD*%
%TA.AperFunction,ComponentPad*%
%ADD17RoundRect,0.750000X-0.750000X-1.000000X0.750000X-1.000000X0.750000X1.000000X-0.750000X1.000000X0*%
%TD*%
%TA.AperFunction,ComponentPad*%
%ADD18RoundRect,0.875000X-0.875000X-0.875000X0.875000X-0.875000X0.875000X0.875000X-0.875000X0.875000X0*%
%TD*%
%TA.AperFunction,ComponentPad*%
%ADD19RoundRect,0.249999X-0.850001X-0.850001X0.850001X-0.850001X0.850001X0.850001X-0.850001X0.850001X0*%
%TD*%
%TA.AperFunction,ComponentPad*%
%ADD20C,2.200000*%
%TD*%
%TA.AperFunction,ComponentPad*%
%ADD21RoundRect,0.450000X0.450000X0.450000X-0.450000X0.450000X-0.450000X-0.450000X0.450000X-0.450000X0*%
%TD*%
%TA.AperFunction,ViaPad*%
%ADD22C,0.600000*%
%TD*%
%TA.AperFunction,Conductor*%
%ADD23C,0.200000*%
%TD*%
G04 APERTURE END LIST*
D10*
%TO.P,C7,1*%
%TO.N,N$7*%
X116000000Y-64000000D03*
%TO.P,C7,2*%
%TO.N,FZ2*%
X121000000Y-64000000D03*
%TD*%
%TO.P,R9,1*%
%TO.N,N$7*%
X35000000Y-82000000D03*
%TO.P,R9,2*%
%TO.N,FZ2*%
X37540000Y-82000000D03*
%TD*%
%TO.P,R21,1*%
%TO.N,N$20*%
X98000000Y-91000000D03*
%TO.P,R21,2*%
%TO.N,N$22*%
X100540000Y-91000000D03*
%TD*%
%TO.P,R13,1*%
%TO.N,FZ3*%
X134000000Y-82000000D03*
%TO.P,R13,2*%
%TO.N,FZ*%
X136540000Y-82000000D03*
%TD*%
%TO.P,R11,1*%
%TO.N,N$10*%
X116000000Y-82000000D03*
%TO.P,R11,2*%
%TO.N,N$11*%
X118540000Y-82000000D03*
%TD*%
%TO.P,R40,1*%
%TO.N,N$35*%
X134000000Y-100000000D03*
%TO.P,R40,2*%
%TO.N,HP*%
X136540000Y-100000000D03*
%TD*%
D11*
%TO.P,D13,1*%
%TO.N,N$22*%
X80000000Y-91000000D03*
D10*
%TO.P,D13,2*%
%TO.N,N$25*%
X82540000Y-91000000D03*
%TD*%
D11*
%TO.P,C2,1*%
%TO.N,NREF*%
X71000000Y-64000000D03*
D10*
%TO.P,C2,2*%
%TO.N,GND*%
X73500000Y-64000000D03*
%TD*%
%TO.P,R47,1*%
%TO.N,N$42*%
X80000000Y-109000000D03*
%TO.P,R47,2*%
%TO.N,N$43*%
X82540000Y-109000000D03*
%TD*%
%TO.P,R24,1*%
%TO.N,N$24*%
X125000000Y-91000000D03*
%TO.P,R24,2*%
%TO.N,N$23*%
X127540000Y-91000000D03*
%TD*%
D12*
%TO.P,RV2,1*%
%TO.N,N$2*%
X65000000Y-13000000D03*
D13*
%TO.P,RV2,2*%
%TO.N,N$3*%
X65000000Y-15500000D03*
%TO.P,RV2,3*%
X65000000Y-18000000D03*
%TD*%
D11*
%TO.P,D8,1*%
%TO.N,FZ3*%
X98000000Y-82000000D03*
D10*
%TO.P,D8,2*%
%TO.N,N$11*%
X100540000Y-82000000D03*
%TD*%
%TO.P,R31,1*%
%TO.N,N$29*%
X71000000Y-100000000D03*
%TO.P,R31,2*%
%TO.N,ECTL*%
X73540000Y-100000000D03*
%TD*%
%TO.P,R22,1*%
%TO.N,N$22*%
X107000000Y-91000000D03*
%TO.P,R22,2*%
%TO.N,N$24*%
X109540000Y-91000000D03*
%TD*%
%TO.P,R39,1*%
%TO.N,LP*%
X125000000Y-100000000D03*
%TO.P,R39,2*%
%TO.N,N$35*%
X127540000Y-100000000D03*
%TD*%
%TO.P,R41,1*%
%TO.N,BP*%
X62000000Y-109000000D03*
%TO.P,R41,2*%
%TO.N,N$36*%
X64540000Y-109000000D03*
%TD*%
D11*
%TO.P,U7,1*%
%TO.N,N$31*%
X138000000Y-38000000D03*
D10*
%TO.P,U7,2*%
%TO.N,N/C*%
X138000000Y-40540000D03*
%TO.P,U7,3*%
%TO.N,N$37*%
X138000000Y-43080000D03*
%TO.P,U7,4*%
%TO.N,VREF*%
X138000000Y-45620000D03*
%TO.P,U7,5*%
%TO.N,N$38*%
X138000000Y-48160000D03*
%TO.P,U7,6*%
%TO.N,GND*%
X138000000Y-50700000D03*
%TO.P,U7,7*%
X138000000Y-53240000D03*
%TO.P,U7,8*%
%TO.N,N/C*%
X138000000Y-55780000D03*
%TO.P,U7,9*%
X145620000Y-55780000D03*
%TO.P,U7,10*%
%TO.N,GND*%
X145620000Y-53240000D03*
%TO.P,U7,11*%
%TO.N,VCC*%
X145620000Y-50700000D03*
%TO.P,U7,12*%
%TO.N,N$41*%
X145620000Y-48160000D03*
%TO.P,U7,13*%
%TO.N,VREF*%
X145620000Y-45620000D03*
%TO.P,U7,14*%
%TO.N,N$40*%
X145620000Y-43080000D03*
%TO.P,U7,15*%
%TO.N,N/C*%
X145620000Y-40540000D03*
%TO.P,U7,16*%
%TO.N,N$32*%
X145620000Y-38000000D03*
%TD*%
%TO.P,R44,1*%
%TO.N,N$37*%
X35000000Y-118000000D03*
%TO.P,R44,2*%
%TO.N,VREF*%
X37540000Y-118000000D03*
%TD*%
%TO.P,R8,1*%
%TO.N,N$6*%
X26000000Y-82000000D03*
%TO.P,R8,2*%
%TO.N,N$7*%
X28540000Y-82000000D03*
%TD*%
%TO.P,R45,1*%
%TO.N,BP*%
X71000000Y-109000000D03*
%TO.P,R45,2*%
%TO.N,N$40*%
X73540000Y-109000000D03*
%TD*%
D14*
%TO.P,J2,R*%
%TO.N,N/C*%
X168080000Y-67720000D03*
%TO.P,J2,S*%
%TO.N,GND*%
X157920000Y-67720000D03*
D15*
%TO.P,J2,T*%
%TO.N,OUT*%
X163000000Y-62000000D03*
%TD*%
D10*
%TO.P,C23,1*%
%TO.N,VCC*%
X102000000Y-24000000D03*
%TO.P,C23,2*%
%TO.N,GND*%
X107000000Y-24000000D03*
%TD*%
%TO.P,R4,1*%
%TO.N,N$1*%
X116000000Y-73000000D03*
%TO.P,R4,2*%
%TO.N,VREF*%
X118540000Y-73000000D03*
%TD*%
D12*
%TO.P,RV1,1*%
%TO.N,OPRE*%
X30000000Y-13000000D03*
D13*
%TO.P,RV1,2*%
%TO.N,N$47*%
X30000000Y-15500000D03*
%TO.P,RV1,3*%
%TO.N,VREF*%
X30000000Y-18000000D03*
%TD*%
D10*
%TO.P,C14,1*%
%TO.N,N$26*%
X62000000Y-64000000D03*
%TO.P,C14,2*%
%TO.N,VREF*%
X67000000Y-64000000D03*
%TD*%
%TO.P,R3,1*%
%TO.N,NP*%
X107000000Y-73000000D03*
%TO.P,R3,2*%
%TO.N,VREF*%
X109540000Y-73000000D03*
%TD*%
%TO.P,C5,1*%
%TO.N,N$3*%
X98000000Y-64000000D03*
%TO.P,C5,2*%
%TO.N,FZ1*%
X103000000Y-64000000D03*
%TD*%
D11*
%TO.P,D11,1*%
%TO.N,N$14*%
X80000000Y-82000000D03*
D10*
%TO.P,D11,2*%
%TO.N,N$17*%
X82540000Y-82000000D03*
%TD*%
D11*
%TO.P,C1,1*%
%TO.N,VCC*%
X26000000Y-64000000D03*
D10*
%TO.P,C1,2*%
%TO.N,GND*%
X28500000Y-64000000D03*
%TD*%
%TO.P,C13,1*%
%TO.N,FZ*%
X53000000Y-64000000D03*
%TO.P,C13,2*%
%TO.N,N$20*%
X58000000Y-64000000D03*
%TD*%
%TO.P,R37,1*%
%TO.N,N$34*%
X107000000Y-100000000D03*
%TO.P,R37,2*%
%TO.N,N$33*%
X109540000Y-100000000D03*
%TD*%
%TO.P,C16,1*%
%TO.N,N$38*%
X44000000Y-109000000D03*
%TO.P,C16,2*%
%TO.N,VREF*%
X49000000Y-109000000D03*
%TD*%
%TO.P,C10,1*%
%TO.N,FZ*%
X35000000Y-64000000D03*
%TO.P,C10,2*%
%TO.N,VREF*%
X40000000Y-64000000D03*
%TD*%
%TO.P,R28,1*%
%TO.N,VCC*%
X35000000Y-100000000D03*
%TO.P,R28,2*%
%TO.N,N$28*%
X37540000Y-100000000D03*
%TD*%
D11*
%TO.P,D7,1*%
%TO.N,N$7*%
X53000000Y-73000000D03*
D10*
%TO.P,D7,2*%
%TO.N,N$9*%
X55540000Y-73000000D03*
%TD*%
D11*
%TO.P,U3,1*%
%TO.N,N$25*%
X66000000Y-38000000D03*
D10*
%TO.P,U3,2*%
%TO.N,N$22*%
X66000000Y-40540000D03*
%TO.P,U3,3*%
%TO.N,VREF*%
X66000000Y-43080000D03*
%TO.P,U3,4*%
%TO.N,VCC*%
X66000000Y-45620000D03*
%TO.P,U3,5*%
%TO.N,VREF*%
X66000000Y-48160000D03*
%TO.P,U3,6*%
%TO.N,N$23*%
X66000000Y-50700000D03*
%TO.P,U3,7*%
%TO.N,N$21*%
X66000000Y-53240000D03*
%TO.P,U3,8*%
%TO.N,OCTV*%
X73620000Y-53240000D03*
%TO.P,U3,9*%
X73620000Y-50700000D03*
%TO.P,U3,10*%
%TO.N,N$27*%
X73620000Y-48160000D03*
%TO.P,U3,11*%
%TO.N,GND*%
X73620000Y-45620000D03*
%TO.P,U3,12*%
%TO.N,N$28*%
X73620000Y-43080000D03*
%TO.P,U3,13*%
%TO.N,VOFF*%
X73620000Y-40540000D03*
%TO.P,U3,14*%
X73620000Y-38000000D03*
%TD*%
%TO.P,C15,1*%
%TO.N,N$26*%
X71000000Y-91000000D03*
%TO.P,C15,2*%
%TO.N,N$27*%
X76000000Y-91000000D03*
%TD*%
%TO.P,C25,1*%
%TO.N,VCC*%
X138000000Y-24000000D03*
%TO.P,C25,2*%
%TO.N,GND*%
X143000000Y-24000000D03*
%TD*%
%TO.P,C20,1*%
%TO.N,VCC*%
X48000000Y-24000000D03*
%TO.P,C20,2*%
%TO.N,GND*%
X53000000Y-24000000D03*
%TD*%
%TO.P,R20,1*%
%TO.N,N$18*%
X53000000Y-91000000D03*
%TO.P,R20,2*%
%TO.N,N$19*%
X55540000Y-91000000D03*
%TD*%
D11*
%TO.P,D10,1*%
%TO.N,N$11*%
X71000000Y-82000000D03*
D10*
%TO.P,D10,2*%
%TO.N,N$13*%
X73540000Y-82000000D03*
%TD*%
D14*
%TO.P,J1,R*%
%TO.N,N/C*%
X17080000Y-67720000D03*
%TO.P,J1,S*%
%TO.N,GND*%
X6920000Y-67720000D03*
D15*
%TO.P,J1,T*%
%TO.N,SIN*%
X12000000Y-62000000D03*
%TD*%
D10*
%TO.P,R35,1*%
%TO.N,VBIAS*%
X89000000Y-100000000D03*
%TO.P,R35,2*%
%TO.N,N$32*%
X91540000Y-100000000D03*
%TD*%
%TO.P,R12,1*%
%TO.N,N$11*%
X125000000Y-82000000D03*
%TO.P,R12,2*%
%TO.N,FZ3*%
X127540000Y-82000000D03*
%TD*%
%TO.P,R33,1*%
%TO.N,N$30*%
X53000000Y-100000000D03*
%TO.P,R33,2*%
%TO.N,VOFF*%
X55540000Y-100000000D03*
%TD*%
D11*
%TO.P,D5,1*%
%TO.N,FZ2*%
X35000000Y-73000000D03*
D10*
%TO.P,D5,2*%
%TO.N,N$7*%
X37540000Y-73000000D03*
%TD*%
D16*
%TO.P,J3,1*%
%TO.N,GND*%
X163000000Y-13000000D03*
D17*
%TO.P,J3,2*%
%TO.N,VRAW*%
X157000000Y-13000000D03*
D18*
%TO.P,J3,3*%
%TO.N,N/C*%
X160000000Y-17700000D03*
%TD*%
D10*
%TO.P,R50,1*%
%TO.N,BODYF*%
X98000000Y-109000000D03*
%TO.P,R50,2*%
%TO.N,N$46*%
X100540000Y-109000000D03*
%TD*%
%TO.P,R48,1*%
%TO.N,N$43*%
X89000000Y-109000000D03*
%TO.P,R48,2*%
%TO.N,VREF*%
X91540000Y-109000000D03*
%TD*%
%TO.P,C17,1*%
%TO.N,N$41*%
X53000000Y-109000000D03*
%TO.P,C17,2*%
%TO.N,VREF*%
X58000000Y-109000000D03*
%TD*%
%TO.P,C18,1*%
%TO.N,N$44*%
X116000000Y-109000000D03*
%TO.P,C18,2*%
%TO.N,N$45*%
X121000000Y-109000000D03*
%TD*%
%TO.P,R1,1*%
%TO.N,VCC*%
X62000000Y-73000000D03*
%TO.P,R1,2*%
%TO.N,NREF*%
X64540000Y-73000000D03*
%TD*%
%TO.P,C24,1*%
%TO.N,VCC*%
X120000000Y-24000000D03*
%TO.P,C24,2*%
%TO.N,GND*%
X125000000Y-24000000D03*
%TD*%
%TO.P,C22,1*%
%TO.N,VCC*%
X84000000Y-24000000D03*
%TO.P,C22,2*%
%TO.N,GND*%
X89000000Y-24000000D03*
%TD*%
D19*
%TO.P,D1,1*%
%TO.N,VCC*%
X148000000Y-24000000D03*
D20*
%TO.P,D1,2*%
%TO.N,VRAW*%
X158160000Y-24000000D03*
%TD*%
D10*
%TO.P,R25,1*%
%TO.N,N$23*%
X134000000Y-91000000D03*
%TO.P,R25,2*%
%TO.N,N$21*%
X136540000Y-91000000D03*
%TD*%
%TO.P,R10,1*%
%TO.N,N$10*%
X71000000Y-73000000D03*
%TO.P,R10,2*%
%TO.N,VREF*%
X73540000Y-73000000D03*
%TD*%
D11*
%TO.P,D3,1*%
%TO.N,N$5*%
X143000000Y-64000000D03*
D10*
%TO.P,D3,2*%
%TO.N,FZ1*%
X145540000Y-64000000D03*
%TD*%
%TO.P,R23,1*%
%TO.N,N$20*%
X116000000Y-91000000D03*
%TO.P,R23,2*%
%TO.N,N$23*%
X118540000Y-91000000D03*
%TD*%
%TO.P,R5,1*%
%TO.N,N$1*%
X125000000Y-73000000D03*
%TO.P,R5,2*%
%TO.N,N$2*%
X127540000Y-73000000D03*
%TD*%
%TO.P,R52,1*%
%TO.N,N$46*%
X143000000Y-109000000D03*
%TO.P,R52,2*%
%TO.N,OPRE*%
X145540000Y-109000000D03*
%TD*%
%TO.P,R19,1*%
%TO.N,RABS_E*%
X44000000Y-91000000D03*
%TO.P,R19,2*%
%TO.N,N$18*%
X46540000Y-91000000D03*
%TD*%
D11*
%TO.P,U5,1*%
%TO.N,BP*%
X102000000Y-38000000D03*
D10*
%TO.P,U5,2*%
X102000000Y-40540000D03*
%TO.P,U5,3*%
%TO.N,N$38*%
X102000000Y-43080000D03*
%TO.P,U5,4*%
%TO.N,VCC*%
X102000000Y-45620000D03*
%TO.P,U5,5*%
%TO.N,N$41*%
X102000000Y-48160000D03*
%TO.P,U5,6*%
%TO.N,LP*%
X102000000Y-50700000D03*
%TO.P,U5,7*%
X102000000Y-53240000D03*
%TO.P,U5,8*%
%TO.N,BODYF*%
X109620000Y-53240000D03*
%TO.P,U5,9*%
X109620000Y-50700000D03*
%TO.P,U5,10*%
%TO.N,BP*%
X109620000Y-48160000D03*
%TO.P,U5,11*%
%TO.N,GND*%
X109620000Y-45620000D03*
%TO.P,U5,12*%
%TO.N,OCTV*%
X109620000Y-43080000D03*
%TO.P,U5,13*%
%TO.N,N$43*%
X109620000Y-40540000D03*
%TO.P,U5,14*%
%TO.N,N$42*%
X109620000Y-38000000D03*
%TD*%
D21*
%TO.P,RV4,1*%
%TO.N,VOFF*%
X135000000Y-13000000D03*
D13*
%TO.P,RV4,2*%
%TO.N,VBP*%
X135000000Y-15500000D03*
%TO.P,RV4,3*%
%TO.N,ECTL*%
X135000000Y-18000000D03*
%TO.P,RV4,4*%
%TO.N,N$36*%
X137500000Y-13000000D03*
%TO.P,RV4,5*%
%TO.N,N$35*%
X137500000Y-15500000D03*
%TO.P,RV4,6*%
%TO.N,N$36*%
X137500000Y-18000000D03*
%TD*%
D11*
%TO.P,U4,1*%
%TO.N,ECTL*%
X84000000Y-38000000D03*
D10*
%TO.P,U4,2*%
%TO.N,N$29*%
X84000000Y-40540000D03*
%TO.P,U4,3*%
%TO.N,N$30*%
X84000000Y-43080000D03*
%TO.P,U4,4*%
%TO.N,VCC*%
X84000000Y-45620000D03*
%TO.P,U4,5*%
%TO.N,VBP*%
X84000000Y-48160000D03*
%TO.P,U4,6*%
%TO.N,VBIAS*%
X84000000Y-50700000D03*
%TO.P,U4,7*%
X84000000Y-53240000D03*
%TO.P,U4,8*%
%TO.N,N$33*%
X91620000Y-53240000D03*
%TO.P,U4,9*%
%TO.N,N$34*%
X91620000Y-50700000D03*
%TO.P,U4,10*%
%TO.N,VREF*%
X91620000Y-48160000D03*
%TO.P,U4,11*%
%TO.N,GND*%
X91620000Y-45620000D03*
%TO.P,U4,12*%
%TO.N,VREF*%
X91620000Y-43080000D03*
%TO.P,U4,13*%
%TO.N,N$35*%
X91620000Y-40540000D03*
%TO.P,U4,14*%
%TO.N,HP*%
X91620000Y-38000000D03*
%TD*%
%TO.P,R6,1*%
%TO.N,N$3*%
X134000000Y-73000000D03*
%TO.P,R6,2*%
%TO.N,FZ1*%
X136540000Y-73000000D03*
%TD*%
%TO.P,R26,1*%
%TO.N,N$21*%
X143000000Y-91000000D03*
%TO.P,R26,2*%
%TO.N,N$26*%
X145540000Y-91000000D03*
%TD*%
%TO.P,C4,1*%
%TO.N,SIG*%
X89000000Y-64000000D03*
%TO.P,C4,2*%
%TO.N,N$1*%
X94000000Y-64000000D03*
%TD*%
%TO.P,R46,1*%
%TO.N,N$40*%
X44000000Y-118000000D03*
%TO.P,R46,2*%
%TO.N,VREF*%
X46540000Y-118000000D03*
%TD*%
D11*
%TO.P,U2,1*%
%TO.N,FZ3*%
X48000000Y-38000000D03*
D10*
%TO.P,U2,2*%
%TO.N,N$11*%
X48000000Y-40540000D03*
%TO.P,U2,3*%
%TO.N,VREF*%
X48000000Y-43080000D03*
%TO.P,U2,4*%
%TO.N,VCC*%
X48000000Y-45620000D03*
%TO.P,U2,5*%
%TO.N,VREF*%
X48000000Y-48160000D03*
%TO.P,U2,6*%
%TO.N,N$14*%
X48000000Y-50700000D03*
%TO.P,U2,7*%
%TO.N,N$17*%
X48000000Y-53240000D03*
%TO.P,U2,8*%
%TO.N,RABS_E*%
X55620000Y-53240000D03*
%TO.P,U2,9*%
%TO.N,N$15*%
X55620000Y-50700000D03*
%TO.P,U2,10*%
%TO.N,VREF*%
X55620000Y-48160000D03*
%TO.P,U2,11*%
%TO.N,GND*%
X55620000Y-45620000D03*
%TO.P,U2,12*%
%TO.N,N$19*%
X55620000Y-43080000D03*
%TO.P,U2,13*%
%TO.N,CV*%
X55620000Y-40540000D03*
%TO.P,U2,14*%
X55620000Y-38000000D03*
%TD*%
%TO.P,R49,1*%
%TO.N,N$45*%
X125000000Y-109000000D03*
%TO.P,R49,2*%
%TO.N,VREF*%
X127540000Y-109000000D03*
%TD*%
%TO.P,R38,1*%
%TO.N,N$33*%
X116000000Y-100000000D03*
%TO.P,R38,2*%
%TO.N,N$35*%
X118540000Y-100000000D03*
%TD*%
%TO.P,R17,1*%
%TO.N,N$16*%
X26000000Y-91000000D03*
%TO.P,R17,2*%
%TO.N,N$15*%
X28540000Y-91000000D03*
%TD*%
%TO.P,R34,1*%
%TO.N,VBIAS*%
X80000000Y-100000000D03*
%TO.P,R34,2*%
%TO.N,N$31*%
X82540000Y-100000000D03*
%TD*%
%TO.P,C3,1*%
%TO.N,SIN*%
X80000000Y-64000000D03*
%TO.P,C3,2*%
%TO.N,NP*%
X85000000Y-64000000D03*
%TD*%
%TO.P,C8,1*%
%TO.N,FZ2*%
X125000000Y-64000000D03*
%TO.P,C8,2*%
%TO.N,N$10*%
X130000000Y-64000000D03*
%TD*%
%TO.P,C19,1*%
%TO.N,VCC*%
X30000000Y-24000000D03*
%TO.P,C19,2*%
%TO.N,GND*%
X35000000Y-24000000D03*
%TD*%
D11*
%TO.P,C11,1*%
%TO.N,N$18*%
X44000000Y-64000000D03*
D10*
%TO.P,C11,2*%
%TO.N,VREF*%
X46500000Y-64000000D03*
%TD*%
D11*
%TO.P,C12,1*%
%TO.N,N$19*%
X53000000Y-82000000D03*
D10*
%TO.P,C12,2*%
%TO.N,VREF*%
X55500000Y-82000000D03*
%TD*%
%TO.P,C6,1*%
%TO.N,FZ1*%
X107000000Y-64000000D03*
%TO.P,C6,2*%
%TO.N,N$6*%
X112000000Y-64000000D03*
%TD*%
D11*
%TO.P,D4,1*%
%TO.N,N$3*%
X26000000Y-73000000D03*
D10*
%TO.P,D4,2*%
%TO.N,N$5*%
X28540000Y-73000000D03*
%TD*%
%TO.P,R14,1*%
%TO.N,SIG*%
X80000000Y-73000000D03*
%TO.P,R14,2*%
%TO.N,N$14*%
X82540000Y-73000000D03*
%TD*%
%TO.P,R30,1*%
%TO.N,VREF*%
X62000000Y-100000000D03*
%TO.P,R30,2*%
%TO.N,N$29*%
X64540000Y-100000000D03*
%TD*%
%TO.P,C21,1*%
%TO.N,VCC*%
X66000000Y-24000000D03*
%TO.P,C21,2*%
%TO.N,GND*%
X71000000Y-24000000D03*
%TD*%
%TO.P,R36,1*%
%TO.N,FZ*%
X98000000Y-100000000D03*
%TO.P,R36,2*%
%TO.N,N$34*%
X100540000Y-100000000D03*
%TD*%
D11*
%TO.P,D6,1*%
%TO.N,N$9*%
X44000000Y-73000000D03*
D10*
%TO.P,D6,2*%
%TO.N,FZ2*%
X46540000Y-73000000D03*
%TD*%
%TO.P,R42,1*%
%TO.N,N$36*%
X143000000Y-100000000D03*
%TO.P,R42,2*%
%TO.N,N$35*%
X145540000Y-100000000D03*
%TD*%
%TO.P,R32,1*%
%TO.N,CV*%
X62000000Y-91000000D03*
%TO.P,R32,2*%
%TO.N,N$30*%
X64540000Y-91000000D03*
%TD*%
%TO.P,R27,1*%
%TO.N,N$27*%
X26000000Y-100000000D03*
%TO.P,R27,2*%
%TO.N,VREF*%
X28540000Y-100000000D03*
%TD*%
%TO.P,R51,1*%
%TO.N,OCTF*%
X134000000Y-109000000D03*
%TO.P,R51,2*%
%TO.N,N$46*%
X136540000Y-109000000D03*
%TD*%
%TO.P,R16,1*%
%TO.N,SIG*%
X89000000Y-73000000D03*
%TO.P,R16,2*%
%TO.N,N$15*%
X91540000Y-73000000D03*
%TD*%
D11*
%TO.P,D9,1*%
%TO.N,N$13*%
X107000000Y-82000000D03*
D10*
%TO.P,D9,2*%
%TO.N,FZ3*%
X109540000Y-82000000D03*
%TD*%
%TO.P,C9,1*%
%TO.N,N$11*%
X62000000Y-82000000D03*
%TO.P,C9,2*%
%TO.N,FZ3*%
X67000000Y-82000000D03*
%TD*%
%TO.P,R2,1*%
%TO.N,NREF*%
X98000000Y-73000000D03*
%TO.P,R2,2*%
%TO.N,GND*%
X100540000Y-73000000D03*
%TD*%
D11*
%TO.P,D14,1*%
%TO.N,N$25*%
X89000000Y-91000000D03*
D10*
%TO.P,D14,2*%
%TO.N,N$24*%
X91540000Y-91000000D03*
%TD*%
D11*
%TO.P,D2,1*%
%TO.N,FZ1*%
X134000000Y-64000000D03*
D10*
%TO.P,D2,2*%
%TO.N,N$3*%
X136540000Y-64000000D03*
%TD*%
D11*
%TO.P,U1,1*%
%TO.N,VREF*%
X30000000Y-38000000D03*
D10*
%TO.P,U1,2*%
X30000000Y-40540000D03*
%TO.P,U1,3*%
%TO.N,NREF*%
X30000000Y-43080000D03*
%TO.P,U1,4*%
%TO.N,VCC*%
X30000000Y-45620000D03*
%TO.P,U1,5*%
%TO.N,NP*%
X30000000Y-48160000D03*
%TO.P,U1,6*%
%TO.N,SIG*%
X30000000Y-50700000D03*
%TO.P,U1,7*%
X30000000Y-53240000D03*
%TO.P,U1,8*%
%TO.N,FZ1*%
X37620000Y-53240000D03*
%TO.P,U1,9*%
%TO.N,N$3*%
X37620000Y-50700000D03*
%TO.P,U1,10*%
%TO.N,VREF*%
X37620000Y-48160000D03*
%TO.P,U1,11*%
%TO.N,GND*%
X37620000Y-45620000D03*
%TO.P,U1,12*%
%TO.N,VREF*%
X37620000Y-43080000D03*
%TO.P,U1,13*%
%TO.N,N$7*%
X37620000Y-40540000D03*
%TO.P,U1,14*%
%TO.N,FZ2*%
X37620000Y-38000000D03*
%TD*%
%TO.P,R29,1*%
%TO.N,N$28*%
X44000000Y-100000000D03*
%TO.P,R29,2*%
%TO.N,GND*%
X46540000Y-100000000D03*
%TD*%
D11*
%TO.P,D12,1*%
%TO.N,N$17*%
X89000000Y-82000000D03*
D10*
%TO.P,D12,2*%
%TO.N,N$16*%
X91540000Y-82000000D03*
%TD*%
D11*
%TO.P,U6,1*%
%TO.N,OCTF*%
X120000000Y-38000000D03*
D10*
%TO.P,U6,2*%
X120000000Y-40540000D03*
%TO.P,U6,3*%
%TO.N,N$45*%
X120000000Y-43080000D03*
%TO.P,U6,4*%
%TO.N,VCC*%
X120000000Y-45620000D03*
%TO.P,U6,5*%
%TO.N,VREF*%
X120000000Y-48160000D03*
%TO.P,U6,6*%
%TO.N,N$46*%
X120000000Y-50700000D03*
%TO.P,U6,7*%
%TO.N,OPRE*%
X120000000Y-53240000D03*
%TO.P,U6,8*%
%TO.N,OUT*%
X127620000Y-53240000D03*
%TO.P,U6,9*%
X127620000Y-50700000D03*
%TO.P,U6,10*%
%TO.N,N$47*%
X127620000Y-48160000D03*
%TO.P,U6,11*%
%TO.N,GND*%
X127620000Y-45620000D03*
%TO.P,U6,12*%
%TO.N,VREF*%
X127620000Y-43080000D03*
%TO.P,U6,13*%
%TO.N,N$48*%
X127620000Y-40540000D03*
%TO.P,U6,14*%
X127620000Y-38000000D03*
%TD*%
%TO.P,R15,1*%
%TO.N,N$14*%
X143000000Y-82000000D03*
%TO.P,R15,2*%
%TO.N,N$16*%
X145540000Y-82000000D03*
%TD*%
%TO.P,R18,1*%
%TO.N,N$15*%
X35000000Y-91000000D03*
%TO.P,R18,2*%
%TO.N,RABS_E*%
X37540000Y-91000000D03*
%TD*%
%TO.P,R43,1*%
%TO.N,HP*%
X26000000Y-109000000D03*
%TO.P,R43,2*%
%TO.N,N$37*%
X28540000Y-109000000D03*
%TD*%
D12*
%TO.P,RV3,1*%
%TO.N,N$42*%
X100000000Y-13000000D03*
D13*
%TO.P,RV3,2*%
%TO.N,N$44*%
X100000000Y-15500000D03*
%TO.P,RV3,3*%
%TO.N,VREF*%
X100000000Y-18000000D03*
%TD*%
D10*
%TO.P,R7,1*%
%TO.N,N$6*%
X143000000Y-73000000D03*
%TO.P,R7,2*%
%TO.N,VREF*%
X145540000Y-73000000D03*
%TD*%
D22*
%TO.N,N$20*%
X60683000Y-91346000D03*
%TO.N,FZ3*%
X61032800Y-44755400D03*
%TO.N,FZ*%
X56218400Y-93279600D03*
X132581200Y-91438400D03*
%TO.N,HP*%
X90270100Y-101764800D03*
%TO.N,NREF*%
X64519400Y-59699600D03*
%TO.N,GND*%
X34412800Y-45619900D03*
%TO.N,N$24*%
X93439300Y-92980100D03*
%TO.N,N$23*%
X114554000Y-60599100D03*
%TO.N,N$2*%
X79299200Y-70331500D03*
%TO.N,N$3*%
X37724800Y-62776700D03*
%TO.N,LP*%
X113764100Y-54735400D03*
%TO.N,BP*%
X96824600Y-105266100D03*
%TO.N,N$31*%
X134868100Y-92756900D03*
%TO.N,N$37*%
X132803100Y-102154400D03*
%TO.N,N$38*%
X96824600Y-103325400D03*
%TO.N,VCC*%
X92725900Y-44430900D03*
%TO.N,N$41*%
X75186400Y-54467300D03*
%TO.N,N$32*%
X144713500Y-98012100D03*
%TO.N,N$1*%
X98531800Y-68933000D03*
%TO.N,OPRE*%
X42545100Y-45819100D03*
%TO.N,N$47*%
X114352500Y-16750000D03*
%TO.N,NP*%
X87560900Y-69098700D03*
%TO.N,N$14*%
X77753700Y-56667100D03*
%TO.N,N$17*%
X78474400Y-57328500D03*
%TO.N,N$28*%
X61042800Y-98418800D03*
%TO.N,N$21*%
X129530800Y-59517200D03*
%TO.N,N$30*%
X84251500Y-86384300D03*
%TO.N,N$15*%
X58660400Y-74166000D03*
%TD*%
%TO.N,N$7*%
D23*
X36846100Y-72306100D02*
X37540000Y-73000000D01*
X36075100Y-59578900D02*
X36846100Y-60349900D01*
X37540000Y-73000000D02*
X37540000Y-79460000D01*
X37540000Y-79460000D02*
X35000000Y-82000000D01*
X36846100Y-60349900D02*
X36846100Y-72306100D01*
X37620000Y-40540000D02*
X36075100Y-42084900D01*
X36075100Y-42084900D02*
X36075100Y-59578900D01*
%TO.N,FZ2*%
X37620000Y-38000000D02*
X35625800Y-39994200D01*
X36138500Y-62826200D02*
X36138500Y-71861500D01*
X37540000Y-82000000D02*
X36389600Y-83150400D01*
X36138500Y-71861500D02*
X35000000Y-73000000D01*
X35625800Y-62313500D02*
X36138500Y-62826200D01*
X34587100Y-83150400D02*
X33880700Y-82444000D01*
X36389600Y-83150400D02*
X34587100Y-83150400D01*
X33880700Y-82444000D02*
X33880700Y-74119300D01*
X33880700Y-74119300D02*
X35000000Y-73000000D01*
X35625800Y-39994200D02*
X35625800Y-62313500D01*
%TO.N,N$20*%
X58000000Y-64000000D02*
X58000000Y-88663000D01*
X58000000Y-88663000D02*
X60683000Y-91346000D01*
%TO.N,N$22*%
X74079200Y-41954500D02*
X67414500Y-41954500D01*
X76274100Y-87274100D02*
X76274100Y-44149400D01*
X67414500Y-41954500D02*
X66000000Y-40540000D01*
X80000000Y-91000000D02*
X76274100Y-87274100D01*
X76274100Y-44149400D02*
X74079200Y-41954500D01*
%TO.N,FZ3*%
X60489800Y-75489800D02*
X67000000Y-82000000D01*
X60891700Y-44896500D02*
X60891700Y-70129900D01*
X60891700Y-70129900D02*
X60489800Y-70531800D01*
X61032800Y-44755400D02*
X60891700Y-44896500D01*
X60489800Y-70531800D02*
X60489800Y-75489800D01*
%TO.N,FZ*%
X53000000Y-64000000D02*
X51846100Y-65153900D01*
X51846100Y-82853600D02*
X54270000Y-85277500D01*
X136540000Y-82000000D02*
X132581200Y-85958800D01*
X132581200Y-85958800D02*
X132581200Y-91438400D01*
X54270000Y-85277500D02*
X54270000Y-91331200D01*
X54270000Y-91331200D02*
X56218400Y-93279600D01*
X51846100Y-65153900D02*
X51846100Y-82853600D01*
%TO.N,N$10*%
X116000000Y-78000000D02*
X130000000Y-64000000D01*
X116000000Y-82000000D02*
X116000000Y-78000000D01*
%TO.N,N$11*%
X48000000Y-40540000D02*
X51690100Y-36849900D01*
X59956300Y-66023200D02*
X59663900Y-66315600D01*
X56061200Y-36849900D02*
X59956300Y-40745000D01*
X51690100Y-36849900D02*
X56061200Y-36849900D01*
X59663900Y-66315600D02*
X59663900Y-79663900D01*
X59956300Y-40745000D02*
X59956300Y-66023200D01*
X59663900Y-79663900D02*
X62000000Y-82000000D01*
%TO.N,N$35*%
X145913800Y-49430000D02*
X147176300Y-48167500D01*
X145540000Y-100000000D02*
X147111600Y-98428400D01*
X141872200Y-31570800D02*
X141872200Y-19872200D01*
X145303900Y-49430000D02*
X145913800Y-49430000D01*
X144515700Y-56884700D02*
X144515700Y-50218200D01*
X147111600Y-59480600D02*
X144515700Y-56884700D01*
X141872200Y-19872200D02*
X137500000Y-15500000D01*
X147176300Y-36874900D02*
X141872200Y-31570800D01*
X147176300Y-48167500D02*
X147176300Y-36874900D01*
X147111600Y-98428400D02*
X147111600Y-59480600D01*
X144515700Y-50218200D02*
X145303900Y-49430000D01*
%TO.N,HP*%
X90270100Y-49962800D02*
X90270100Y-101764800D01*
X91620000Y-38000000D02*
X90020100Y-39599900D01*
X90020100Y-39599900D02*
X90020100Y-49712800D01*
X90020100Y-49712800D02*
X90270100Y-49962800D01*
%TO.N,N$25*%
X67129400Y-36870600D02*
X66000000Y-38000000D01*
X76675800Y-85135800D02*
X76675800Y-39467200D01*
X82540000Y-91000000D02*
X76675800Y-85135800D01*
X76675800Y-39467200D02*
X74079200Y-36870600D01*
X74079200Y-36870600D02*
X67129400Y-36870600D01*
%TO.N,NREF*%
X69898300Y-65101700D02*
X71000000Y-64000000D01*
X64519400Y-59699600D02*
X64519400Y-63078300D01*
X66542800Y-65101700D02*
X69898300Y-65101700D01*
X66542800Y-65101700D02*
X66542800Y-70997200D01*
X66542800Y-70997200D02*
X64540000Y-73000000D01*
X64519400Y-63078300D02*
X66542800Y-65101700D01*
%TO.N,GND*%
X158891700Y-10943400D02*
X155804300Y-10943400D01*
X155804300Y-10943400D02*
X143000000Y-23747700D01*
X91620000Y-45620000D02*
X100540000Y-54540000D01*
X157920000Y-65540000D02*
X157920000Y-67720000D01*
X100540000Y-54540000D02*
X100540000Y-73000000D01*
X98749500Y-14250500D02*
X89000000Y-24000000D01*
X107000000Y-20797800D02*
X100452700Y-14250500D01*
X72114000Y-47126000D02*
X72114000Y-62614000D01*
X40159300Y-89347500D02*
X40159300Y-93619300D01*
X72114000Y-62614000D02*
X73500000Y-64000000D01*
X28500000Y-64000000D02*
X29806800Y-64000000D01*
X107000000Y-43000000D02*
X107000000Y-24000000D01*
X107000000Y-24000000D02*
X107000000Y-20797800D01*
X29806800Y-64000000D02*
X29806800Y-78995000D01*
X73620000Y-45620000D02*
X72114000Y-47126000D01*
X163000000Y-13000000D02*
X160948300Y-13000000D01*
X34412800Y-59394000D02*
X34412800Y-45619900D01*
X29806800Y-64000000D02*
X34412800Y-59394000D01*
X145620000Y-53240000D02*
X157920000Y-65540000D01*
X29806800Y-78995000D02*
X40159300Y-89347500D01*
X109620000Y-45620000D02*
X107000000Y-43000000D01*
X138000000Y-53240000D02*
X138000000Y-50700000D01*
X100452700Y-14250500D02*
X98749500Y-14250500D01*
X143000000Y-23747700D02*
X143000000Y-24000000D01*
X160948300Y-13000000D02*
X158891700Y-10943400D01*
X40159300Y-93619300D02*
X46540000Y-100000000D01*
%TO.N,N$42*%
X85305100Y-103694900D02*
X85305100Y-70449400D01*
X80000000Y-109000000D02*
X85305100Y-103694900D01*
X82898300Y-50243700D02*
X83804000Y-49338000D01*
X98401400Y-13000000D02*
X100000000Y-13000000D01*
X85305100Y-70449400D02*
X82898300Y-68042600D01*
X87774800Y-23626600D02*
X98401400Y-13000000D01*
X109620000Y-22620000D02*
X100000000Y-13000000D01*
X83804000Y-49338000D02*
X84458700Y-49338000D01*
X87774800Y-46021900D02*
X87774800Y-23626600D01*
X84458700Y-49338000D02*
X87774800Y-46021900D01*
X82898300Y-68042600D02*
X82898300Y-50243700D01*
X109620000Y-38000000D02*
X109620000Y-22620000D01*
%TO.N,N$43*%
X116108800Y-110532000D02*
X90532000Y-110532000D01*
X109620000Y-40540000D02*
X111300200Y-42220200D01*
X113148600Y-103989000D02*
X117115300Y-107955700D01*
X117115300Y-109525500D02*
X116108800Y-110532000D01*
X90532000Y-110532000D02*
X89000000Y-109000000D01*
X113148600Y-61704700D02*
X113148600Y-103989000D01*
X117115300Y-107955700D02*
X117115300Y-109525500D01*
X111300200Y-42220200D02*
X111300200Y-59856300D01*
X111300200Y-59856300D02*
X113148600Y-61704700D01*
%TO.N,N$24*%
X91540000Y-91000000D02*
X93439300Y-92899300D01*
X93439300Y-92899300D02*
X93439300Y-92980100D01*
%TO.N,N$23*%
X118540000Y-91000000D02*
X114554000Y-87014000D01*
X114554000Y-87014000D02*
X114554000Y-60599100D01*
%TO.N,N$2*%
X77101200Y-25101200D02*
X77101200Y-68133500D01*
X77101200Y-68133500D02*
X79299200Y-70331500D01*
X65000000Y-13000000D02*
X77101200Y-25101200D01*
%TO.N,N$3*%
X36510500Y-51809500D02*
X37620000Y-50700000D01*
X47536500Y-39366000D02*
X48559900Y-39366000D01*
X45853600Y-41048900D02*
X47536500Y-39366000D01*
X48559900Y-39366000D02*
X65000000Y-22925900D01*
X36510500Y-57899400D02*
X36510500Y-51809500D01*
X38515100Y-50700000D02*
X45853600Y-43361500D01*
X65000000Y-18000000D02*
X65000000Y-15500000D01*
X136540000Y-70460000D02*
X134000000Y-73000000D01*
X136540000Y-64000000D02*
X136540000Y-70460000D01*
X37724800Y-62776700D02*
X37724800Y-59113700D01*
X65000000Y-22925900D02*
X65000000Y-18000000D01*
X37620000Y-50700000D02*
X38515100Y-50700000D01*
X37724800Y-59113700D02*
X36510500Y-57899400D01*
X45853600Y-43361500D02*
X45853600Y-41048900D01*
%TO.N,N$29*%
X78522700Y-92477300D02*
X71000000Y-100000000D01*
X84072800Y-71892000D02*
X84072800Y-82156600D01*
X83641700Y-91456700D02*
X82621100Y-92477300D01*
X82621100Y-92477300D02*
X78522700Y-92477300D01*
X81678600Y-69497800D02*
X84072800Y-71892000D01*
X84000000Y-40540000D02*
X81678600Y-42861400D01*
X84072800Y-82156600D02*
X83641700Y-82587700D01*
X81678600Y-42861400D02*
X81678600Y-69497800D01*
X83641700Y-82587700D02*
X83641700Y-91456700D01*
%TO.N,ECTL*%
X84903400Y-70670700D02*
X84903400Y-90796200D01*
X84127900Y-44518300D02*
X83508300Y-44518300D01*
X84000000Y-38000000D02*
X85133000Y-39133000D01*
X84903400Y-90796200D02*
X75699600Y-100000000D01*
X83508300Y-44518300D02*
X82482000Y-45544600D01*
X85133000Y-43513200D02*
X84127900Y-44518300D01*
X75699600Y-100000000D02*
X73540000Y-100000000D01*
X85133000Y-39133000D02*
X85133000Y-43513200D01*
X82482000Y-45544600D02*
X82482000Y-68249300D01*
X82482000Y-68249300D02*
X84903400Y-70670700D01*
%TO.N,LP*%
X117101700Y-90472400D02*
X113952200Y-87322900D01*
X117101700Y-92101700D02*
X117101700Y-90472400D01*
X125000000Y-100000000D02*
X117101700Y-92101700D01*
X113952200Y-54923500D02*
X113764100Y-54735400D01*
X102000000Y-50700000D02*
X102000000Y-53240000D01*
X113952200Y-87322900D02*
X113952200Y-54923500D01*
%TO.N,BP*%
X104828000Y-48160000D02*
X109620000Y-48160000D01*
X102000000Y-40540000D02*
X104828000Y-43368000D01*
X97482000Y-105266100D02*
X104828000Y-97920100D01*
X96824600Y-105266100D02*
X97482000Y-105266100D01*
X104828000Y-43368000D02*
X104828000Y-48160000D01*
X104828000Y-97920100D02*
X104828000Y-48160000D01*
X102000000Y-40540000D02*
X102000000Y-38000000D01*
%TO.N,N$36*%
X136250000Y-16750000D02*
X136250000Y-14250000D01*
X137500000Y-18000000D02*
X139505500Y-20005500D01*
X137500000Y-18000000D02*
X136250000Y-16750000D01*
X139505500Y-20005500D02*
X139505500Y-96505500D01*
X136250000Y-14250000D02*
X137500000Y-13000000D01*
X139505500Y-96505500D02*
X143000000Y-100000000D01*
%TO.N,N$31*%
X136895000Y-39105000D02*
X136895000Y-62796900D01*
X138057000Y-91057000D02*
X136357100Y-92756900D01*
X136357100Y-92756900D02*
X134868100Y-92756900D01*
X138000000Y-38000000D02*
X136895000Y-39105000D01*
X136895000Y-62796900D02*
X138057000Y-63958900D01*
X138057000Y-63958900D02*
X138057000Y-91057000D01*
%TO.N,N$37*%
X138000000Y-43080000D02*
X139103500Y-44183500D01*
X139103500Y-93338500D02*
X132803100Y-99638900D01*
X139103500Y-44183500D02*
X139103500Y-93338500D01*
X132803100Y-99638900D02*
X132803100Y-102154400D01*
%TO.N,VREF*%
X56885600Y-93515500D02*
X51887200Y-98513900D01*
X68112800Y-46103100D02*
X65993300Y-43983600D01*
X28895200Y-36895200D02*
X30000000Y-38000000D01*
X84453800Y-110101700D02*
X86705900Y-107849600D01*
X52440800Y-110107400D02*
X56892600Y-110107400D01*
X46869500Y-47029500D02*
X46869500Y-44210500D01*
X56885600Y-83385600D02*
X56885600Y-93515500D01*
X91620000Y-43080000D02*
X100000000Y-34700000D01*
X46869500Y-44210500D02*
X48000000Y-43080000D01*
X58000000Y-109000000D02*
X62000000Y-105000000D01*
X46540000Y-118000000D02*
X49000000Y-115540000D01*
X74442000Y-105000000D02*
X79543700Y-110101700D01*
X51887200Y-109000000D02*
X51887200Y-109553800D01*
X51887200Y-109000000D02*
X49000000Y-109000000D01*
X62000000Y-105000000D02*
X74442000Y-105000000D01*
X144334000Y-60757500D02*
X143712300Y-60135800D01*
X46500000Y-49660000D02*
X46500000Y-64000000D01*
X36501000Y-47041000D02*
X37620000Y-48160000D01*
X64830200Y-45146700D02*
X64830200Y-46990200D01*
X48000000Y-48160000D02*
X46869500Y-47029500D01*
X90471500Y-44228500D02*
X91620000Y-43080000D01*
X37620000Y-43080000D02*
X36501000Y-44199000D01*
X56892600Y-110107400D02*
X58000000Y-109000000D01*
X30000000Y-18000000D02*
X28895200Y-19104800D01*
X49000000Y-115540000D02*
X49000000Y-109000000D01*
X90471500Y-47011500D02*
X90471500Y-44228500D01*
X73540000Y-73000000D02*
X72321500Y-71781500D01*
X64830200Y-46990200D02*
X66000000Y-48160000D01*
X51887200Y-109553800D02*
X52440800Y-110107400D01*
X125080000Y-43080000D02*
X127620000Y-43080000D01*
X65993300Y-43983600D02*
X64830200Y-45146700D01*
X66000000Y-43976900D02*
X65993300Y-43983600D01*
X37540000Y-109000000D02*
X37540000Y-118000000D01*
X91620000Y-48160000D02*
X90471500Y-47011500D01*
X90389600Y-107849600D02*
X91540000Y-109000000D01*
X68112800Y-62887200D02*
X68112800Y-46103100D01*
X144334000Y-71794000D02*
X144334000Y-60757500D01*
X72321500Y-63414800D02*
X71793900Y-62887200D01*
X66000000Y-43080000D02*
X66000000Y-43976900D01*
X100000000Y-34700000D02*
X100000000Y-18000000D01*
X36501000Y-44199000D02*
X36501000Y-47041000D01*
X120000000Y-48160000D02*
X125080000Y-43080000D01*
X79543700Y-110101700D02*
X84453800Y-110101700D01*
X143712300Y-60135800D02*
X143712300Y-47527700D01*
X48000000Y-48160000D02*
X46500000Y-49660000D01*
X62000000Y-105000000D02*
X62000000Y-100000000D01*
X86705900Y-107849600D02*
X90389600Y-107849600D01*
X30000000Y-40540000D02*
X30000000Y-38000000D01*
X28540000Y-100000000D02*
X37540000Y-109000000D01*
X143712300Y-47527700D02*
X145620000Y-45620000D01*
X28895200Y-19104800D02*
X28895200Y-36895200D01*
X145540000Y-73000000D02*
X144334000Y-71794000D01*
X68112800Y-62887200D02*
X67000000Y-64000000D01*
X51887200Y-98513900D02*
X51887200Y-109000000D01*
X72321500Y-71781500D02*
X72321500Y-63414800D01*
X71793900Y-62887200D02*
X68112800Y-62887200D01*
X55500000Y-82000000D02*
X56885600Y-83385600D01*
%TO.N,N$38*%
X103150300Y-44230300D02*
X103150300Y-61962400D01*
X101868800Y-63243900D02*
X101868800Y-100269200D01*
X98812600Y-103325400D02*
X96824600Y-103325400D01*
X102000000Y-43080000D02*
X103150300Y-44230300D01*
X101868800Y-100269200D02*
X98812600Y-103325400D01*
X103150300Y-61962400D02*
X101868800Y-63243900D01*
%TO.N,VCC*%
X100875100Y-44430900D02*
X100875100Y-25124900D01*
X66000000Y-45620000D02*
X67107100Y-46727100D01*
X102000000Y-45620000D02*
X100875100Y-44495100D01*
X67107100Y-55857600D02*
X63709700Y-59255000D01*
X63709700Y-71290300D02*
X62000000Y-73000000D01*
X26000000Y-49620000D02*
X30000000Y-45620000D01*
X121543300Y-41394000D02*
X121137100Y-40987800D01*
X120000000Y-45620000D02*
X121543300Y-44076700D01*
X26000000Y-64000000D02*
X26000000Y-49620000D01*
X100875100Y-44430900D02*
X92725900Y-44430900D01*
X67107100Y-46727100D02*
X67107100Y-55857600D01*
X27334000Y-65334000D02*
X26000000Y-64000000D01*
X63709700Y-59255000D02*
X63709700Y-71290300D01*
X27334000Y-92334000D02*
X27334000Y-65334000D01*
X35000000Y-100000000D02*
X27334000Y-92334000D01*
X121543300Y-44076700D02*
X121543300Y-41394000D01*
X31157800Y-25157800D02*
X30000000Y-24000000D01*
X121137100Y-25137100D02*
X120000000Y-24000000D01*
X121137100Y-40987800D02*
X121137100Y-25137100D01*
X30000000Y-45620000D02*
X31157800Y-44462200D01*
X100875100Y-25124900D02*
X102000000Y-24000000D01*
X31157800Y-44462200D02*
X31157800Y-25157800D01*
X100875100Y-44495100D02*
X100875100Y-44430900D01*
%TO.N,N$41*%
X53000000Y-109000000D02*
X53000000Y-107375000D01*
X75186400Y-89056800D02*
X75186400Y-54467300D01*
X62398300Y-97976700D02*
X66266500Y-97976700D01*
X53000000Y-107375000D02*
X62398300Y-97976700D01*
X66266500Y-97976700D02*
X75186400Y-89056800D01*
%TO.N,N$40*%
X145108400Y-110993600D02*
X75533600Y-110993600D01*
X145620000Y-43080000D02*
X141885600Y-46814400D01*
X144270000Y-99456900D02*
X144270000Y-105929900D01*
X75533600Y-110993600D02*
X73540000Y-109000000D01*
X144270000Y-105929900D02*
X146642500Y-108302400D01*
X146642500Y-108302400D02*
X146642500Y-109459500D01*
X146642500Y-109459500D02*
X145108400Y-110993600D01*
X141885600Y-46814400D02*
X141885600Y-97072500D01*
X141885600Y-97072500D02*
X144270000Y-99456900D01*
%TO.N,N$32*%
X145620000Y-38000000D02*
X146724200Y-39104200D01*
X146665300Y-96060300D02*
X144713500Y-98012100D01*
X144114000Y-59273100D02*
X146665300Y-61824400D01*
X146665300Y-61824400D02*
X146665300Y-96060300D01*
X146724200Y-46087700D02*
X145753600Y-47058300D01*
X146724200Y-39104200D02*
X146724200Y-46087700D01*
X144114000Y-48108000D02*
X144114000Y-59273100D01*
X145163700Y-47058300D02*
X144114000Y-48108000D01*
X145753600Y-47058300D02*
X145163700Y-47058300D01*
%TO.N,OUT*%
X127620000Y-50700000D02*
X127620000Y-53240000D01*
%TO.N,N$1*%
X94000000Y-64401200D02*
X94000000Y-64000000D01*
X98531800Y-68933000D02*
X94000000Y-64401200D01*
%TO.N,OPRE*%
X121463300Y-53240000D02*
X120000000Y-53240000D01*
X144434400Y-110105600D02*
X136063300Y-110105600D01*
X42545100Y-25545100D02*
X30000000Y-13000000D01*
X42545100Y-45819100D02*
X42545100Y-25545100D01*
X145540000Y-109000000D02*
X144434400Y-110105600D01*
X135101700Y-107376700D02*
X131575500Y-103850500D01*
X135101700Y-109144000D02*
X135101700Y-107376700D01*
X131575500Y-63352200D02*
X121463300Y-53240000D01*
X136063300Y-110105600D02*
X135101700Y-109144000D01*
X131575500Y-103850500D02*
X131575500Y-63352200D01*
%TO.N,N$47*%
X127309600Y-41815900D02*
X121857700Y-36364000D01*
X127620000Y-48160000D02*
X128729900Y-47050100D01*
X121857700Y-24255200D02*
X114352500Y-16750000D01*
X121857700Y-36364000D02*
X121857700Y-24255200D01*
X128729900Y-42622300D02*
X127923500Y-41815900D01*
X128729900Y-47050100D02*
X128729900Y-42622300D01*
X127923500Y-41815900D02*
X127309600Y-41815900D01*
%TO.N,N$26*%
X60895700Y-74273200D02*
X60895700Y-72296000D01*
X62000000Y-71191700D02*
X62000000Y-64000000D01*
X71000000Y-91000000D02*
X71000000Y-84377500D01*
X71000000Y-84377500D02*
X60895700Y-74273200D01*
X60895700Y-72296000D02*
X62000000Y-71191700D01*
%TO.N,NP*%
X85000000Y-64000000D02*
X87560900Y-66560900D01*
X87560900Y-66560900D02*
X87560900Y-69098700D01*
%TO.N,FZ1*%
X135433800Y-74106200D02*
X136540000Y-73000000D01*
X133538800Y-74106200D02*
X135433800Y-74106200D01*
X132861900Y-73429300D02*
X133538800Y-74106200D01*
X132861900Y-65138100D02*
X132861900Y-73429300D01*
X134000000Y-64000000D02*
X132861900Y-65138100D01*
%TO.N,N$14*%
X77753700Y-67473900D02*
X82540000Y-72260200D01*
X82540000Y-79460000D02*
X80000000Y-82000000D01*
X82540000Y-72260200D02*
X82540000Y-73000000D01*
X82540000Y-73000000D02*
X82540000Y-79460000D01*
X77753700Y-56667100D02*
X77753700Y-67473900D01*
%TO.N,N$17*%
X83655700Y-72557600D02*
X78474400Y-67376300D01*
X83655700Y-80884300D02*
X83655700Y-72557600D01*
X78474400Y-67376300D02*
X78474400Y-57328500D01*
X82540000Y-82000000D02*
X83655700Y-80884300D01*
%TO.N,N$34*%
X99270000Y-58350000D02*
X99270000Y-98730000D01*
X99270000Y-98730000D02*
X100540000Y-100000000D01*
X91620000Y-50700000D02*
X99270000Y-58350000D01*
%TO.N,N$33*%
X99128500Y-108839000D02*
X105482700Y-102484800D01*
X107055200Y-102484800D02*
X109540000Y-100000000D01*
X99128500Y-109438400D02*
X99128500Y-108839000D01*
X105482700Y-102484800D02*
X107055200Y-102484800D01*
X95655700Y-93106600D02*
X95655700Y-108277000D01*
X97480400Y-110101700D02*
X98465200Y-110101700D01*
X95655700Y-108277000D02*
X97480400Y-110101700D01*
X92641700Y-90092600D02*
X95655700Y-93106600D01*
X92641700Y-54261700D02*
X92641700Y-90092600D01*
X98465200Y-110101700D02*
X99128500Y-109438400D01*
X91620000Y-53240000D02*
X92641700Y-54261700D01*
%TO.N,N$28*%
X70082000Y-93533600D02*
X65928000Y-93533600D01*
X74668800Y-63610700D02*
X74668800Y-88946800D01*
X74744400Y-44204400D02*
X74744400Y-46063900D01*
X73620000Y-43080000D02*
X74744400Y-44204400D01*
X65928000Y-93533600D02*
X61042800Y-98418800D01*
X73750000Y-47058300D02*
X73129100Y-47058300D01*
X73129100Y-47058300D02*
X72517800Y-47669600D01*
X74668800Y-88946800D02*
X70082000Y-93533600D01*
X72517800Y-61459700D02*
X74668800Y-63610700D01*
X72517800Y-47669600D02*
X72517800Y-61459700D01*
X74744400Y-46063900D02*
X73750000Y-47058300D01*
%TO.N,N$21*%
X137643700Y-79488000D02*
X137643700Y-89896300D01*
X132423700Y-62410100D02*
X132423700Y-74268000D01*
X132423700Y-74268000D02*
X137643700Y-79488000D01*
X129530800Y-59517200D02*
X132423700Y-62410100D01*
X137643700Y-89896300D02*
X136540000Y-91000000D01*
%TO.N,OCTV*%
X73620000Y-50700000D02*
X73620000Y-53240000D01*
%TO.N,N$27*%
X75872400Y-90872400D02*
X75872400Y-50412400D01*
X75872400Y-50412400D02*
X73620000Y-48160000D01*
X76000000Y-91000000D02*
X75872400Y-90872400D01*
%TO.N,VOFF*%
X73620000Y-39428700D02*
X73620000Y-40540000D01*
X65686500Y-91456800D02*
X57143300Y-100000000D01*
X57143300Y-100000000D02*
X55540000Y-100000000D01*
X73620000Y-39428700D02*
X65472200Y-39428700D01*
X65686500Y-83146500D02*
X65686500Y-91456800D01*
X60358000Y-44542900D02*
X60358000Y-66658500D01*
X60079700Y-77539700D02*
X65686500Y-83146500D01*
X73620000Y-38000000D02*
X73620000Y-39428700D01*
X60358000Y-66658500D02*
X60079700Y-66936800D01*
X60079700Y-66936800D02*
X60079700Y-77539700D01*
X65472200Y-39428700D02*
X60358000Y-44542900D01*
%TO.N,N$18*%
X42888300Y-91510600D02*
X43480600Y-92102900D01*
X43480600Y-92102900D02*
X45437100Y-92102900D01*
X45437100Y-92102900D02*
X46540000Y-91000000D01*
X42888300Y-65111700D02*
X42888300Y-91510600D01*
X44000000Y-64000000D02*
X42888300Y-65111700D01*
%TO.N,N$19*%
X54515500Y-44184500D02*
X54515500Y-51160800D01*
X55493000Y-52138300D02*
X56112100Y-52138300D01*
X55620000Y-43080000D02*
X54515500Y-44184500D01*
X56112100Y-52138300D02*
X56757300Y-52783500D01*
X55540000Y-84540000D02*
X55540000Y-91000000D01*
X53000000Y-82000000D02*
X55540000Y-84540000D01*
X56757300Y-78242700D02*
X53000000Y-82000000D01*
X56757300Y-52783500D02*
X56757300Y-78242700D01*
X54515500Y-51160800D02*
X55493000Y-52138300D01*
%TO.N,VBIAS*%
X83848800Y-53391200D02*
X84000000Y-53240000D01*
X84000000Y-53240000D02*
X84000000Y-50700000D01*
X83848800Y-67296300D02*
X83848800Y-53391200D01*
X86121700Y-69569200D02*
X83848800Y-67296300D01*
X89000000Y-100000000D02*
X86121700Y-97121700D01*
X86121700Y-97121700D02*
X86121700Y-69569200D01*
%TO.N,N$30*%
X84000000Y-43080000D02*
X82080300Y-44999700D01*
X53000000Y-100000000D02*
X60316500Y-92683500D01*
X60316500Y-92683500D02*
X62856500Y-92683500D01*
X84500200Y-71183500D02*
X84500200Y-86135600D01*
X82080300Y-68763600D02*
X84500200Y-71183500D01*
X82080300Y-44999700D02*
X82080300Y-68763600D01*
X84500200Y-86135600D02*
X84251500Y-86384300D01*
X62856500Y-92683500D02*
X64540000Y-91000000D01*
%TO.N,VRAW*%
X158160000Y-24000000D02*
X157000000Y-22840000D01*
X157000000Y-22840000D02*
X157000000Y-13000000D01*
%TO.N,BODYF*%
X109620000Y-50700000D02*
X109620000Y-53240000D01*
X98000000Y-109000000D02*
X105512800Y-101487200D01*
X105512800Y-57347200D02*
X109620000Y-53240000D01*
X105512800Y-101487200D02*
X105512800Y-57347200D01*
%TO.N,N$46*%
X136540000Y-108246900D02*
X136540000Y-109000000D01*
X120000000Y-50700000D02*
X120000000Y-50837200D01*
X131978600Y-62815800D02*
X131978600Y-103685500D01*
X120000000Y-50837200D02*
X131978600Y-62815800D01*
X131978600Y-103685500D02*
X136540000Y-108246900D01*
%TO.N,N$44*%
X104395400Y-41956500D02*
X109328900Y-46890000D01*
X100000000Y-15500000D02*
X104395400Y-19895400D01*
X110730500Y-103730500D02*
X116000000Y-109000000D01*
X109937600Y-46890000D02*
X110730500Y-47682900D01*
X110730500Y-47682900D02*
X110730500Y-103730500D01*
X104395400Y-19895400D02*
X104395400Y-41956500D01*
X109328900Y-46890000D02*
X109937600Y-46890000D01*
%TO.N,N$45*%
X113158500Y-49921500D02*
X120000000Y-43080000D01*
X113550500Y-101550500D02*
X113550500Y-61397200D01*
X121000000Y-109000000D02*
X113550500Y-101550500D01*
X113550500Y-61397200D02*
X113158500Y-61005200D01*
X113158500Y-61005200D02*
X113158500Y-49921500D01*
%TO.N,RABS_E*%
X48043000Y-86957000D02*
X44000000Y-91000000D01*
X48043000Y-60817000D02*
X48043000Y-86957000D01*
X55620000Y-53240000D02*
X48043000Y-60817000D01*
%TO.N,VBP*%
X99041500Y-11791900D02*
X85824800Y-25008600D01*
X85824700Y-46335300D02*
X84000000Y-48160000D01*
X135000000Y-15500000D02*
X131291900Y-11791900D01*
X85824800Y-25008600D02*
X85824800Y-46335300D01*
X85824800Y-46335300D02*
X85824700Y-46335300D01*
X131291900Y-11791900D02*
X99041500Y-11791900D01*
%TO.N,SIG*%
X89000000Y-73000000D02*
X89000000Y-64000000D01*
X30000000Y-53240000D02*
X30000000Y-50700000D01*
%TO.N,N$15*%
X59127300Y-54207300D02*
X59127300Y-64430800D01*
X55620000Y-50700000D02*
X59127300Y-54207300D01*
X59127300Y-64430800D02*
X58660400Y-64897700D01*
X58660400Y-64897700D02*
X58660400Y-74166000D01*
%TO.N,CV*%
X59262200Y-66146700D02*
X59554600Y-65854300D01*
X59262200Y-88262200D02*
X59262200Y-66146700D01*
X62000000Y-91000000D02*
X59262200Y-88262200D01*
X59554600Y-44474600D02*
X55620000Y-40540000D01*
X55620000Y-38000000D02*
X55620000Y-40540000D01*
X59554600Y-65854300D02*
X59554600Y-44474600D01*
%TO.N,OCTF*%
X131101700Y-63494700D02*
X131101700Y-106101700D01*
X121120900Y-43553700D02*
X120156300Y-44518300D01*
X131101700Y-106101700D02*
X134000000Y-109000000D01*
X120156300Y-44518300D02*
X119518900Y-44518300D01*
X123401700Y-58218400D02*
X125825400Y-58218400D01*
X125825400Y-58218400D02*
X131101700Y-63494700D01*
X118891600Y-53708300D02*
X123401700Y-58218400D01*
X120000000Y-40540000D02*
X121120900Y-41660900D01*
X120000000Y-38000000D02*
X120000000Y-40540000D01*
X118891600Y-45145600D02*
X118891600Y-53708300D01*
X119518900Y-44518300D02*
X118891600Y-45145600D01*
X121120900Y-41660900D02*
X121120900Y-43553700D01*
%TO.N,N$48*%
X127620000Y-38000000D02*
X127620000Y-40540000D01*
%TD*%
M02*
