%TF.GenerationSoftware,KiCad,Pcbnew,10.0.4*%
%TF.CreationDate,2026-06-25T23:24:21-04:00*%
%TF.ProjectId,duck,6475636b-2e6b-4696-9361-645f70636258,rev?*%
%TF.SameCoordinates,Original*%
%TF.FileFunction,OtherDrawing,Comment*%
%FSLAX46Y46*%
G04 Gerber Fmt 4.6, Leading zero omitted, Abs format (unit mm)*
G04 Created by KiCad (PCBNEW 10.0.4) date 2026-06-25 23:24:21*
%MOMM*%
%LPD*%
G01*
G04 APERTURE LIST*
%ADD10C,0.100000*%
G04 APERTURE END LIST*
D10*
X94626109Y-17214285D02*
X94126109Y-17214285D01*
X94126109Y-17214285D02*
X94126109Y-17023809D01*
X94126109Y-17023809D02*
X94149919Y-16976190D01*
X94149919Y-16976190D02*
X94173728Y-16952380D01*
X94173728Y-16952380D02*
X94221347Y-16928571D01*
X94221347Y-16928571D02*
X94292776Y-16928571D01*
X94292776Y-16928571D02*
X94340395Y-16952380D01*
X94340395Y-16952380D02*
X94364204Y-16976190D01*
X94364204Y-16976190D02*
X94388014Y-17023809D01*
X94388014Y-17023809D02*
X94388014Y-17214285D01*
X94578490Y-16428571D02*
X94602300Y-16452380D01*
X94602300Y-16452380D02*
X94626109Y-16523809D01*
X94626109Y-16523809D02*
X94626109Y-16571428D01*
X94626109Y-16571428D02*
X94602300Y-16642856D01*
X94602300Y-16642856D02*
X94554680Y-16690475D01*
X94554680Y-16690475D02*
X94507061Y-16714285D01*
X94507061Y-16714285D02*
X94411823Y-16738094D01*
X94411823Y-16738094D02*
X94340395Y-16738094D01*
X94340395Y-16738094D02*
X94245157Y-16714285D01*
X94245157Y-16714285D02*
X94197538Y-16690475D01*
X94197538Y-16690475D02*
X94149919Y-16642856D01*
X94149919Y-16642856D02*
X94126109Y-16571428D01*
X94126109Y-16571428D02*
X94126109Y-16523809D01*
X94126109Y-16523809D02*
X94149919Y-16452380D01*
X94149919Y-16452380D02*
X94173728Y-16428571D01*
X94364204Y-16047618D02*
X94388014Y-15976190D01*
X94388014Y-15976190D02*
X94411823Y-15952380D01*
X94411823Y-15952380D02*
X94459442Y-15928571D01*
X94459442Y-15928571D02*
X94530871Y-15928571D01*
X94530871Y-15928571D02*
X94578490Y-15952380D01*
X94578490Y-15952380D02*
X94602300Y-15976190D01*
X94602300Y-15976190D02*
X94626109Y-16023809D01*
X94626109Y-16023809D02*
X94626109Y-16214285D01*
X94626109Y-16214285D02*
X94126109Y-16214285D01*
X94126109Y-16214285D02*
X94126109Y-16047618D01*
X94126109Y-16047618D02*
X94149919Y-15999999D01*
X94149919Y-15999999D02*
X94173728Y-15976190D01*
X94173728Y-15976190D02*
X94221347Y-15952380D01*
X94221347Y-15952380D02*
X94268966Y-15952380D01*
X94268966Y-15952380D02*
X94316585Y-15976190D01*
X94316585Y-15976190D02*
X94340395Y-15999999D01*
X94340395Y-15999999D02*
X94364204Y-16047618D01*
X94364204Y-16047618D02*
X94364204Y-16214285D01*
X94364204Y-15333333D02*
X94364204Y-15166666D01*
X94626109Y-15095238D02*
X94626109Y-15333333D01*
X94626109Y-15333333D02*
X94126109Y-15333333D01*
X94126109Y-15333333D02*
X94126109Y-15095238D01*
X94626109Y-14666666D02*
X94126109Y-14666666D01*
X94602300Y-14666666D02*
X94626109Y-14714285D01*
X94626109Y-14714285D02*
X94626109Y-14809523D01*
X94626109Y-14809523D02*
X94602300Y-14857142D01*
X94602300Y-14857142D02*
X94578490Y-14880952D01*
X94578490Y-14880952D02*
X94530871Y-14904761D01*
X94530871Y-14904761D02*
X94388014Y-14904761D01*
X94388014Y-14904761D02*
X94340395Y-14880952D01*
X94340395Y-14880952D02*
X94316585Y-14857142D01*
X94316585Y-14857142D02*
X94292776Y-14809523D01*
X94292776Y-14809523D02*
X94292776Y-14714285D01*
X94292776Y-14714285D02*
X94316585Y-14666666D01*
X94292776Y-14214285D02*
X94697538Y-14214285D01*
X94697538Y-14214285D02*
X94745157Y-14238095D01*
X94745157Y-14238095D02*
X94768966Y-14261904D01*
X94768966Y-14261904D02*
X94792776Y-14309523D01*
X94792776Y-14309523D02*
X94792776Y-14380952D01*
X94792776Y-14380952D02*
X94768966Y-14428571D01*
X94602300Y-14214285D02*
X94626109Y-14261904D01*
X94626109Y-14261904D02*
X94626109Y-14357142D01*
X94626109Y-14357142D02*
X94602300Y-14404761D01*
X94602300Y-14404761D02*
X94578490Y-14428571D01*
X94578490Y-14428571D02*
X94530871Y-14452380D01*
X94530871Y-14452380D02*
X94388014Y-14452380D01*
X94388014Y-14452380D02*
X94340395Y-14428571D01*
X94340395Y-14428571D02*
X94316585Y-14404761D01*
X94316585Y-14404761D02*
X94292776Y-14357142D01*
X94292776Y-14357142D02*
X94292776Y-14261904D01*
X94292776Y-14261904D02*
X94316585Y-14214285D01*
X94602300Y-13785714D02*
X94626109Y-13833333D01*
X94626109Y-13833333D02*
X94626109Y-13928571D01*
X94626109Y-13928571D02*
X94602300Y-13976190D01*
X94602300Y-13976190D02*
X94554680Y-13999999D01*
X94554680Y-13999999D02*
X94364204Y-13999999D01*
X94364204Y-13999999D02*
X94316585Y-13976190D01*
X94316585Y-13976190D02*
X94292776Y-13928571D01*
X94292776Y-13928571D02*
X94292776Y-13833333D01*
X94292776Y-13833333D02*
X94316585Y-13785714D01*
X94316585Y-13785714D02*
X94364204Y-13761904D01*
X94364204Y-13761904D02*
X94411823Y-13761904D01*
X94411823Y-13761904D02*
X94459442Y-13999999D01*
X59626109Y-17214285D02*
X59126109Y-17214285D01*
X59126109Y-17214285D02*
X59126109Y-17023809D01*
X59126109Y-17023809D02*
X59149919Y-16976190D01*
X59149919Y-16976190D02*
X59173728Y-16952380D01*
X59173728Y-16952380D02*
X59221347Y-16928571D01*
X59221347Y-16928571D02*
X59292776Y-16928571D01*
X59292776Y-16928571D02*
X59340395Y-16952380D01*
X59340395Y-16952380D02*
X59364204Y-16976190D01*
X59364204Y-16976190D02*
X59388014Y-17023809D01*
X59388014Y-17023809D02*
X59388014Y-17214285D01*
X59578490Y-16428571D02*
X59602300Y-16452380D01*
X59602300Y-16452380D02*
X59626109Y-16523809D01*
X59626109Y-16523809D02*
X59626109Y-16571428D01*
X59626109Y-16571428D02*
X59602300Y-16642856D01*
X59602300Y-16642856D02*
X59554680Y-16690475D01*
X59554680Y-16690475D02*
X59507061Y-16714285D01*
X59507061Y-16714285D02*
X59411823Y-16738094D01*
X59411823Y-16738094D02*
X59340395Y-16738094D01*
X59340395Y-16738094D02*
X59245157Y-16714285D01*
X59245157Y-16714285D02*
X59197538Y-16690475D01*
X59197538Y-16690475D02*
X59149919Y-16642856D01*
X59149919Y-16642856D02*
X59126109Y-16571428D01*
X59126109Y-16571428D02*
X59126109Y-16523809D01*
X59126109Y-16523809D02*
X59149919Y-16452380D01*
X59149919Y-16452380D02*
X59173728Y-16428571D01*
X59364204Y-16047618D02*
X59388014Y-15976190D01*
X59388014Y-15976190D02*
X59411823Y-15952380D01*
X59411823Y-15952380D02*
X59459442Y-15928571D01*
X59459442Y-15928571D02*
X59530871Y-15928571D01*
X59530871Y-15928571D02*
X59578490Y-15952380D01*
X59578490Y-15952380D02*
X59602300Y-15976190D01*
X59602300Y-15976190D02*
X59626109Y-16023809D01*
X59626109Y-16023809D02*
X59626109Y-16214285D01*
X59626109Y-16214285D02*
X59126109Y-16214285D01*
X59126109Y-16214285D02*
X59126109Y-16047618D01*
X59126109Y-16047618D02*
X59149919Y-15999999D01*
X59149919Y-15999999D02*
X59173728Y-15976190D01*
X59173728Y-15976190D02*
X59221347Y-15952380D01*
X59221347Y-15952380D02*
X59268966Y-15952380D01*
X59268966Y-15952380D02*
X59316585Y-15976190D01*
X59316585Y-15976190D02*
X59340395Y-15999999D01*
X59340395Y-15999999D02*
X59364204Y-16047618D01*
X59364204Y-16047618D02*
X59364204Y-16214285D01*
X59364204Y-15333333D02*
X59364204Y-15166666D01*
X59626109Y-15095238D02*
X59626109Y-15333333D01*
X59626109Y-15333333D02*
X59126109Y-15333333D01*
X59126109Y-15333333D02*
X59126109Y-15095238D01*
X59626109Y-14666666D02*
X59126109Y-14666666D01*
X59602300Y-14666666D02*
X59626109Y-14714285D01*
X59626109Y-14714285D02*
X59626109Y-14809523D01*
X59626109Y-14809523D02*
X59602300Y-14857142D01*
X59602300Y-14857142D02*
X59578490Y-14880952D01*
X59578490Y-14880952D02*
X59530871Y-14904761D01*
X59530871Y-14904761D02*
X59388014Y-14904761D01*
X59388014Y-14904761D02*
X59340395Y-14880952D01*
X59340395Y-14880952D02*
X59316585Y-14857142D01*
X59316585Y-14857142D02*
X59292776Y-14809523D01*
X59292776Y-14809523D02*
X59292776Y-14714285D01*
X59292776Y-14714285D02*
X59316585Y-14666666D01*
X59292776Y-14214285D02*
X59697538Y-14214285D01*
X59697538Y-14214285D02*
X59745157Y-14238095D01*
X59745157Y-14238095D02*
X59768966Y-14261904D01*
X59768966Y-14261904D02*
X59792776Y-14309523D01*
X59792776Y-14309523D02*
X59792776Y-14380952D01*
X59792776Y-14380952D02*
X59768966Y-14428571D01*
X59602300Y-14214285D02*
X59626109Y-14261904D01*
X59626109Y-14261904D02*
X59626109Y-14357142D01*
X59626109Y-14357142D02*
X59602300Y-14404761D01*
X59602300Y-14404761D02*
X59578490Y-14428571D01*
X59578490Y-14428571D02*
X59530871Y-14452380D01*
X59530871Y-14452380D02*
X59388014Y-14452380D01*
X59388014Y-14452380D02*
X59340395Y-14428571D01*
X59340395Y-14428571D02*
X59316585Y-14404761D01*
X59316585Y-14404761D02*
X59292776Y-14357142D01*
X59292776Y-14357142D02*
X59292776Y-14261904D01*
X59292776Y-14261904D02*
X59316585Y-14214285D01*
X59602300Y-13785714D02*
X59626109Y-13833333D01*
X59626109Y-13833333D02*
X59626109Y-13928571D01*
X59626109Y-13928571D02*
X59602300Y-13976190D01*
X59602300Y-13976190D02*
X59554680Y-13999999D01*
X59554680Y-13999999D02*
X59364204Y-13999999D01*
X59364204Y-13999999D02*
X59316585Y-13976190D01*
X59316585Y-13976190D02*
X59292776Y-13928571D01*
X59292776Y-13928571D02*
X59292776Y-13833333D01*
X59292776Y-13833333D02*
X59316585Y-13785714D01*
X59316585Y-13785714D02*
X59364204Y-13761904D01*
X59364204Y-13761904D02*
X59411823Y-13761904D01*
X59411823Y-13761904D02*
X59459442Y-13999999D01*
X24626109Y-17214285D02*
X24126109Y-17214285D01*
X24126109Y-17214285D02*
X24126109Y-17023809D01*
X24126109Y-17023809D02*
X24149919Y-16976190D01*
X24149919Y-16976190D02*
X24173728Y-16952380D01*
X24173728Y-16952380D02*
X24221347Y-16928571D01*
X24221347Y-16928571D02*
X24292776Y-16928571D01*
X24292776Y-16928571D02*
X24340395Y-16952380D01*
X24340395Y-16952380D02*
X24364204Y-16976190D01*
X24364204Y-16976190D02*
X24388014Y-17023809D01*
X24388014Y-17023809D02*
X24388014Y-17214285D01*
X24578490Y-16428571D02*
X24602300Y-16452380D01*
X24602300Y-16452380D02*
X24626109Y-16523809D01*
X24626109Y-16523809D02*
X24626109Y-16571428D01*
X24626109Y-16571428D02*
X24602300Y-16642856D01*
X24602300Y-16642856D02*
X24554680Y-16690475D01*
X24554680Y-16690475D02*
X24507061Y-16714285D01*
X24507061Y-16714285D02*
X24411823Y-16738094D01*
X24411823Y-16738094D02*
X24340395Y-16738094D01*
X24340395Y-16738094D02*
X24245157Y-16714285D01*
X24245157Y-16714285D02*
X24197538Y-16690475D01*
X24197538Y-16690475D02*
X24149919Y-16642856D01*
X24149919Y-16642856D02*
X24126109Y-16571428D01*
X24126109Y-16571428D02*
X24126109Y-16523809D01*
X24126109Y-16523809D02*
X24149919Y-16452380D01*
X24149919Y-16452380D02*
X24173728Y-16428571D01*
X24364204Y-16047618D02*
X24388014Y-15976190D01*
X24388014Y-15976190D02*
X24411823Y-15952380D01*
X24411823Y-15952380D02*
X24459442Y-15928571D01*
X24459442Y-15928571D02*
X24530871Y-15928571D01*
X24530871Y-15928571D02*
X24578490Y-15952380D01*
X24578490Y-15952380D02*
X24602300Y-15976190D01*
X24602300Y-15976190D02*
X24626109Y-16023809D01*
X24626109Y-16023809D02*
X24626109Y-16214285D01*
X24626109Y-16214285D02*
X24126109Y-16214285D01*
X24126109Y-16214285D02*
X24126109Y-16047618D01*
X24126109Y-16047618D02*
X24149919Y-15999999D01*
X24149919Y-15999999D02*
X24173728Y-15976190D01*
X24173728Y-15976190D02*
X24221347Y-15952380D01*
X24221347Y-15952380D02*
X24268966Y-15952380D01*
X24268966Y-15952380D02*
X24316585Y-15976190D01*
X24316585Y-15976190D02*
X24340395Y-15999999D01*
X24340395Y-15999999D02*
X24364204Y-16047618D01*
X24364204Y-16047618D02*
X24364204Y-16214285D01*
X24364204Y-15333333D02*
X24364204Y-15166666D01*
X24626109Y-15095238D02*
X24626109Y-15333333D01*
X24626109Y-15333333D02*
X24126109Y-15333333D01*
X24126109Y-15333333D02*
X24126109Y-15095238D01*
X24626109Y-14666666D02*
X24126109Y-14666666D01*
X24602300Y-14666666D02*
X24626109Y-14714285D01*
X24626109Y-14714285D02*
X24626109Y-14809523D01*
X24626109Y-14809523D02*
X24602300Y-14857142D01*
X24602300Y-14857142D02*
X24578490Y-14880952D01*
X24578490Y-14880952D02*
X24530871Y-14904761D01*
X24530871Y-14904761D02*
X24388014Y-14904761D01*
X24388014Y-14904761D02*
X24340395Y-14880952D01*
X24340395Y-14880952D02*
X24316585Y-14857142D01*
X24316585Y-14857142D02*
X24292776Y-14809523D01*
X24292776Y-14809523D02*
X24292776Y-14714285D01*
X24292776Y-14714285D02*
X24316585Y-14666666D01*
X24292776Y-14214285D02*
X24697538Y-14214285D01*
X24697538Y-14214285D02*
X24745157Y-14238095D01*
X24745157Y-14238095D02*
X24768966Y-14261904D01*
X24768966Y-14261904D02*
X24792776Y-14309523D01*
X24792776Y-14309523D02*
X24792776Y-14380952D01*
X24792776Y-14380952D02*
X24768966Y-14428571D01*
X24602300Y-14214285D02*
X24626109Y-14261904D01*
X24626109Y-14261904D02*
X24626109Y-14357142D01*
X24626109Y-14357142D02*
X24602300Y-14404761D01*
X24602300Y-14404761D02*
X24578490Y-14428571D01*
X24578490Y-14428571D02*
X24530871Y-14452380D01*
X24530871Y-14452380D02*
X24388014Y-14452380D01*
X24388014Y-14452380D02*
X24340395Y-14428571D01*
X24340395Y-14428571D02*
X24316585Y-14404761D01*
X24316585Y-14404761D02*
X24292776Y-14357142D01*
X24292776Y-14357142D02*
X24292776Y-14261904D01*
X24292776Y-14261904D02*
X24316585Y-14214285D01*
X24602300Y-13785714D02*
X24626109Y-13833333D01*
X24626109Y-13833333D02*
X24626109Y-13928571D01*
X24626109Y-13928571D02*
X24602300Y-13976190D01*
X24602300Y-13976190D02*
X24554680Y-13999999D01*
X24554680Y-13999999D02*
X24364204Y-13999999D01*
X24364204Y-13999999D02*
X24316585Y-13976190D01*
X24316585Y-13976190D02*
X24292776Y-13928571D01*
X24292776Y-13928571D02*
X24292776Y-13833333D01*
X24292776Y-13833333D02*
X24316585Y-13785714D01*
X24316585Y-13785714D02*
X24364204Y-13761904D01*
X24364204Y-13761904D02*
X24411823Y-13761904D01*
X24411823Y-13761904D02*
X24459442Y-13999999D01*
%TO.C,RV3*%
X95000000Y-10630000D02*
X95000000Y-20370000D01*
%TO.C,RV2*%
X60000000Y-10630000D02*
X60000000Y-20370000D01*
%TO.C,RV1*%
X25000000Y-10630000D02*
X25000000Y-20370000D01*
%TD*%
M02*
