M48
; DRILL file KiCad 10.0.4 date 2026-06-26T14:33:38
; FORMAT={-:-/ absolute / metric / decimal}
; #@! TF.CreationDate,2026-06-26T14:33:38-04:00
; #@! TF.GenerationSoftware,Kicad,Pcbnew,10.0.4
; #@! TF.FileFunction,MixedPlating,1,2
FMAT,2
METRIC
; #@! TA.AperFunction,Plated,PTH,ViaDrill
T1C0.300
; #@! TA.AperFunction,Plated,PTH,ComponentDrill
T2C0.800
; #@! TA.AperFunction,Plated,PTH,ComponentDrill
T3C1.000
; #@! TA.AperFunction,Plated,PTH,ComponentDrill
T4C1.100
; #@! TA.AperFunction,Plated,PTH,ComponentDrill
T5C1.200
; #@! TA.AperFunction,Plated,PTH,ComponentDrill
T6C1.600
; #@! TA.AperFunction,NonPlated,NPTH,ComponentDrill
T7C1.600
; #@! TA.AperFunction,NonPlated,NPTH,ComponentDrill
T8C2.100
%
G90
G05
T1
X34.413Y-45.62
X37.725Y-62.777
X42.545Y-45.819
X56.218Y-93.28
X58.66Y-74.166
X60.683Y-91.346
X61.033Y-44.755
X61.043Y-98.419
X64.519Y-59.7
X75.186Y-54.467
X77.754Y-56.667
X78.474Y-57.328
X79.299Y-70.331
X84.251Y-86.384
X87.561Y-69.099
X90.27Y-101.765
X92.726Y-44.431
X93.439Y-92.98
X96.825Y-103.325
X96.825Y-105.266
X98.532Y-68.933
X113.764Y-54.735
X114.352Y-16.75
X114.554Y-60.599
X129.531Y-59.517
X132.581Y-91.438
X132.803Y-102.154
X134.868Y-92.757
X144.713Y-98.012
T2
X26.0Y-64.0
X26.0Y-73.0
X26.0Y-82.0
X26.0Y-91.0
X26.0Y-100.0
X26.0Y-109.0
X28.5Y-64.0
X28.54Y-73.0
X28.54Y-82.0
X28.54Y-91.0
X28.54Y-100.0
X28.54Y-109.0
X30.0Y-24.0
X30.0Y-38.0
X30.0Y-40.54
X30.0Y-43.08
X30.0Y-45.62
X30.0Y-48.16
X30.0Y-50.7
X30.0Y-53.24
X35.0Y-24.0
X35.0Y-64.0
X35.0Y-73.0
X35.0Y-82.0
X35.0Y-91.0
X35.0Y-100.0
X35.0Y-118.0
X37.54Y-73.0
X37.54Y-82.0
X37.54Y-91.0
X37.54Y-100.0
X37.54Y-118.0
X37.62Y-38.0
X37.62Y-40.54
X37.62Y-43.08
X37.62Y-45.62
X37.62Y-48.16
X37.62Y-50.7
X37.62Y-53.24
X40.0Y-64.0
X44.0Y-64.0
X44.0Y-73.0
X44.0Y-91.0
X44.0Y-100.0
X44.0Y-109.0
X44.0Y-118.0
X46.5Y-64.0
X46.54Y-73.0
X46.54Y-91.0
X46.54Y-100.0
X46.54Y-118.0
X48.0Y-24.0
X48.0Y-38.0
X48.0Y-40.54
X48.0Y-43.08
X48.0Y-45.62
X48.0Y-48.16
X48.0Y-50.7
X48.0Y-53.24
X49.0Y-109.0
X53.0Y-24.0
X53.0Y-64.0
X53.0Y-73.0
X53.0Y-82.0
X53.0Y-91.0
X53.0Y-100.0
X53.0Y-109.0
X55.5Y-82.0
X55.54Y-73.0
X55.54Y-91.0
X55.54Y-100.0
X55.62Y-38.0
X55.62Y-40.54
X55.62Y-43.08
X55.62Y-45.62
X55.62Y-48.16
X55.62Y-50.7
X55.62Y-53.24
X58.0Y-64.0
X58.0Y-109.0
X62.0Y-64.0
X62.0Y-73.0
X62.0Y-82.0
X62.0Y-91.0
X62.0Y-100.0
X62.0Y-109.0
X64.54Y-73.0
X64.54Y-91.0
X64.54Y-100.0
X64.54Y-109.0
X66.0Y-24.0
X66.0Y-38.0
X66.0Y-40.54
X66.0Y-43.08
X66.0Y-45.62
X66.0Y-48.16
X66.0Y-50.7
X66.0Y-53.24
X67.0Y-64.0
X67.0Y-82.0
X71.0Y-24.0
X71.0Y-64.0
X71.0Y-73.0
X71.0Y-82.0
X71.0Y-91.0
X71.0Y-100.0
X71.0Y-109.0
X73.5Y-64.0
X73.54Y-73.0
X73.54Y-82.0
X73.54Y-100.0
X73.54Y-109.0
X73.62Y-38.0
X73.62Y-40.54
X73.62Y-43.08
X73.62Y-45.62
X73.62Y-48.16
X73.62Y-50.7
X73.62Y-53.24
X76.0Y-91.0
X80.0Y-64.0
X80.0Y-73.0
X80.0Y-82.0
X80.0Y-91.0
X80.0Y-100.0
X80.0Y-109.0
X82.54Y-73.0
X82.54Y-82.0
X82.54Y-91.0
X82.54Y-100.0
X82.54Y-109.0
X84.0Y-24.0
X84.0Y-38.0
X84.0Y-40.54
X84.0Y-43.08
X84.0Y-45.62
X84.0Y-48.16
X84.0Y-50.7
X84.0Y-53.24
X85.0Y-64.0
X89.0Y-24.0
X89.0Y-64.0
X89.0Y-73.0
X89.0Y-82.0
X89.0Y-91.0
X89.0Y-100.0
X89.0Y-109.0
X91.54Y-73.0
X91.54Y-82.0
X91.54Y-91.0
X91.54Y-100.0
X91.54Y-109.0
X91.62Y-38.0
X91.62Y-40.54
X91.62Y-43.08
X91.62Y-45.62
X91.62Y-48.16
X91.62Y-50.7
X91.62Y-53.24
X94.0Y-64.0
X98.0Y-64.0
X98.0Y-73.0
X98.0Y-82.0
X98.0Y-91.0
X98.0Y-100.0
X98.0Y-109.0
X100.54Y-73.0
X100.54Y-82.0
X100.54Y-91.0
X100.54Y-100.0
X100.54Y-109.0
X102.0Y-24.0
X102.0Y-38.0
X102.0Y-40.54
X102.0Y-43.08
X102.0Y-45.62
X102.0Y-48.16
X102.0Y-50.7
X102.0Y-53.24
X103.0Y-64.0
X107.0Y-24.0
X107.0Y-64.0
X107.0Y-73.0
X107.0Y-82.0
X107.0Y-91.0
X107.0Y-100.0
X109.54Y-73.0
X109.54Y-82.0
X109.54Y-91.0
X109.54Y-100.0
X109.62Y-38.0
X109.62Y-40.54
X109.62Y-43.08
X109.62Y-45.62
X109.62Y-48.16
X109.62Y-50.7
X109.62Y-53.24
X112.0Y-64.0
X116.0Y-64.0
X116.0Y-73.0
X116.0Y-82.0
X116.0Y-91.0
X116.0Y-100.0
X116.0Y-109.0
X118.54Y-73.0
X118.54Y-82.0
X118.54Y-91.0
X118.54Y-100.0
X120.0Y-24.0
X120.0Y-38.0
X120.0Y-40.54
X120.0Y-43.08
X120.0Y-45.62
X120.0Y-48.16
X120.0Y-50.7
X120.0Y-53.24
X121.0Y-64.0
X121.0Y-109.0
X125.0Y-24.0
X125.0Y-64.0
X125.0Y-73.0
X125.0Y-82.0
X125.0Y-91.0
X125.0Y-100.0
X125.0Y-109.0
X127.54Y-73.0
X127.54Y-82.0
X127.54Y-91.0
X127.54Y-100.0
X127.54Y-109.0
X127.62Y-38.0
X127.62Y-40.54
X127.62Y-43.08
X127.62Y-45.62
X127.62Y-48.16
X127.62Y-50.7
X127.62Y-53.24
X130.0Y-64.0
X134.0Y-64.0
X134.0Y-73.0
X134.0Y-82.0
X134.0Y-91.0
X134.0Y-100.0
X134.0Y-109.0
X136.54Y-64.0
X136.54Y-73.0
X136.54Y-82.0
X136.54Y-91.0
X136.54Y-100.0
X136.54Y-109.0
X138.0Y-24.0
X138.0Y-38.0
X138.0Y-40.54
X138.0Y-43.08
X138.0Y-45.62
X138.0Y-48.16
X138.0Y-50.7
X138.0Y-53.24
X138.0Y-55.78
X143.0Y-24.0
X143.0Y-64.0
X143.0Y-73.0
X143.0Y-82.0
X143.0Y-91.0
X143.0Y-100.0
X143.0Y-109.0
X145.54Y-64.0
X145.54Y-73.0
X145.54Y-82.0
X145.54Y-91.0
X145.54Y-100.0
X145.54Y-109.0
X145.62Y-38.0
X145.62Y-40.54
X145.62Y-43.08
X145.62Y-45.62
X145.62Y-48.16
X145.62Y-50.7
X145.62Y-53.24
X145.62Y-55.78
T3
X30.0Y-13.0
X30.0Y-15.5
X30.0Y-18.0
X65.0Y-13.0
X65.0Y-15.5
X65.0Y-18.0
X100.0Y-13.0
X100.0Y-15.5
X100.0Y-18.0
X135.0Y-13.0
X135.0Y-15.5
X135.0Y-18.0
X137.5Y-13.0
X137.5Y-15.5
X137.5Y-18.0
T4
X148.0Y-24.0
X158.16Y-24.0
T5
X12.0Y-62.0
X163.0Y-62.0
T6
X6.92Y-67.72
X17.08Y-67.72
X157.92Y-67.72
X168.08Y-67.72
T7
X8.82Y-74.07
X159.82Y-74.07
T8
X15.81Y-63.91
X166.81Y-63.91
T3
X157.0Y-12.0G85X157.0Y-14.0
G05
X159.0Y-17.7G85X161.0Y-17.7
G05
X163.0Y-12.0G85X163.0Y-14.0
G05
M30
