M48
; DRILL file KiCad 10.0.4 date 2026-06-25T23:24:22
; FORMAT={-:-/ absolute / metric / decimal}
; #@! TF.CreationDate,2026-06-25T23:24:22-04:00
; #@! TF.GenerationSoftware,Kicad,Pcbnew,10.0.4
; #@! TF.FileFunction,MixedPlating,1,2
FMAT,2
METRIC
; #@! TA.AperFunction,Plated,PTH,ViaDrill
T1C0.300
; #@! TA.AperFunction,Plated,PTH,ComponentDrill
T2C0.800
; #@! TA.AperFunction,Plated,PTH,ComponentDrill
T3C1.000
; #@! TA.AperFunction,Plated,PTH,ComponentDrill
T4C1.200
; #@! TA.AperFunction,Plated,PTH,ComponentDrill
T5C1.600
; #@! TA.AperFunction,NonPlated,NPTH,ComponentDrill
T6C1.600
; #@! TA.AperFunction,NonPlated,NPTH,ComponentDrill
T7C2.100
%
G90
G05
T1
X33.572Y-46.262
X44.736Y-88.642
X45.947Y-75.18
X51.463Y-75.446
X52.46Y-75.56
X55.031Y-67.795
X57.815Y-91.99
X59.262Y-66.242
X61.06Y-80.723
X63.212Y-85.12
X64.25Y-80.08
X66.972Y-89.395
X68.7Y-92.98
X69.199Y-74.164
X72.108Y-68.282
X74.703Y-46.963
X78.071Y-119.1
X82.528Y-44.151
X82.564Y-102.025
X85.36Y-69.749
X87.523Y-60.243
X89.186Y-94.344
X93.942Y-69.006
X96.419Y-61.914
X97.048Y-55.374
X97.507Y-62.529
X103.342Y-46.9
X106.181Y-27.067
X106.306Y-84.49
X106.334Y-58.016
X110.039Y-102.217
X114.848Y-60.484
X115.813Y-57.338
X116.915Y-58.797
X117.973Y-38.86
X121.185Y-39.438
X124.625Y-45.819
X131.809Y-41.969
X141.279Y-58.534
T2
X26.0Y-64.0
X26.0Y-73.0
X26.0Y-82.0
X26.0Y-91.0
X26.0Y-100.0
X26.0Y-109.0
X26.0Y-118.0
X28.5Y-64.0
X28.54Y-73.0
X28.54Y-82.0
X28.54Y-91.0
X28.54Y-100.0
X28.54Y-109.0
X28.54Y-118.0
X30.0Y-38.0
X30.0Y-40.54
X30.0Y-43.08
X30.0Y-45.62
X30.0Y-48.16
X30.0Y-50.7
X30.0Y-53.24
X35.0Y-64.0
X35.0Y-73.0
X35.0Y-82.0
X35.0Y-91.0
X35.0Y-100.0
X35.0Y-109.0
X37.54Y-73.0
X37.54Y-82.0
X37.54Y-91.0
X37.54Y-100.0
X37.54Y-109.0
X37.62Y-38.0
X37.62Y-40.54
X37.62Y-43.08
X37.62Y-45.62
X37.62Y-48.16
X37.62Y-50.7
X37.62Y-53.24
X40.0Y-64.0
X44.0Y-64.0
X44.0Y-73.0
X44.0Y-82.0
X44.0Y-91.0
X44.0Y-100.0
X44.0Y-118.0
X46.5Y-64.0
X46.54Y-73.0
X46.54Y-82.0
X46.54Y-91.0
X46.54Y-100.0
X46.54Y-118.0
X48.0Y-38.0
X48.0Y-40.54
X48.0Y-43.08
X48.0Y-45.62
X48.0Y-48.16
X48.0Y-50.7
X48.0Y-53.24
X53.0Y-64.0
X53.0Y-73.0
X53.0Y-91.0
X53.0Y-100.0
X53.0Y-109.0
X53.0Y-118.0
X55.54Y-73.0
X55.54Y-91.0
X55.54Y-100.0
X55.54Y-118.0
X55.62Y-38.0
X55.62Y-40.54
X55.62Y-43.08
X55.62Y-45.62
X55.62Y-48.16
X55.62Y-50.7
X55.62Y-53.24
X58.0Y-64.0
X58.0Y-109.0
X62.0Y-64.0
X62.0Y-73.0
X62.0Y-82.0
X62.0Y-91.0
X62.0Y-100.0
X62.0Y-109.0
X64.5Y-82.0
X64.54Y-73.0
X64.54Y-91.0
X64.54Y-100.0
X66.0Y-38.0
X66.0Y-40.54
X66.0Y-43.08
X66.0Y-45.62
X66.0Y-48.16
X66.0Y-50.7
X66.0Y-53.24
X67.0Y-64.0
X67.0Y-109.0
X71.0Y-64.0
X71.0Y-73.0
X71.0Y-82.0
X71.0Y-91.0
X71.0Y-100.0
X71.0Y-109.0
X73.5Y-64.0
X73.54Y-73.0
X73.54Y-91.0
X73.54Y-100.0
X73.54Y-109.0
X73.62Y-38.0
X73.62Y-40.54
X73.62Y-43.08
X73.62Y-45.62
X73.62Y-48.16
X73.62Y-50.7
X73.62Y-53.24
X76.0Y-82.0
X80.0Y-64.0
X80.0Y-73.0
X80.0Y-82.0
X80.0Y-91.0
X80.0Y-100.0
X80.0Y-109.0
X82.54Y-73.0
X82.54Y-82.0
X82.54Y-100.0
X82.54Y-109.0
X84.0Y-38.0
X84.0Y-40.54
X84.0Y-43.08
X84.0Y-45.62
X84.0Y-48.16
X84.0Y-50.7
X84.0Y-53.24
X85.0Y-64.0
X85.0Y-91.0
X89.0Y-64.0
X89.0Y-73.0
X89.0Y-82.0
X89.0Y-91.0
X89.0Y-100.0
X89.0Y-109.0
X91.54Y-73.0
X91.54Y-82.0
X91.54Y-91.0
X91.54Y-100.0
X91.54Y-109.0
X91.62Y-38.0
X91.62Y-40.54
X91.62Y-43.08
X91.62Y-45.62
X91.62Y-48.16
X91.62Y-50.7
X91.62Y-53.24
X94.0Y-64.0
X98.0Y-64.0
X98.0Y-73.0
X98.0Y-82.0
X98.0Y-91.0
X98.0Y-100.0
X98.0Y-109.0
X100.54Y-73.0
X100.54Y-82.0
X100.54Y-91.0
X100.54Y-100.0
X100.54Y-109.0
X102.0Y-38.0
X102.0Y-40.54
X102.0Y-43.08
X102.0Y-45.62
X102.0Y-48.16
X102.0Y-50.7
X102.0Y-53.24
X103.0Y-64.0
X107.0Y-64.0
X107.0Y-73.0
X107.0Y-82.0
X107.0Y-91.0
X107.0Y-100.0
X107.0Y-109.0
X109.54Y-73.0
X109.54Y-82.0
X109.54Y-91.0
X109.54Y-100.0
X109.54Y-109.0
X109.62Y-38.0
X109.62Y-40.54
X109.62Y-43.08
X109.62Y-45.62
X109.62Y-48.16
X109.62Y-50.7
X109.62Y-53.24
X112.0Y-64.0
X116.0Y-64.0
X116.0Y-73.0
X116.0Y-82.0
X116.0Y-91.0
X116.0Y-100.0
X118.54Y-73.0
X118.54Y-82.0
X118.54Y-91.0
X118.54Y-100.0
X120.0Y-38.0
X120.0Y-40.54
X120.0Y-43.08
X120.0Y-45.62
X120.0Y-48.16
X120.0Y-50.7
X120.0Y-53.24
X121.0Y-64.0
X125.0Y-64.0
X125.0Y-73.0
X125.0Y-82.0
X125.0Y-91.0
X125.0Y-100.0
X125.0Y-109.0
X127.54Y-73.0
X127.54Y-82.0
X127.54Y-91.0
X127.54Y-100.0
X127.62Y-38.0
X127.62Y-40.54
X127.62Y-43.08
X127.62Y-45.62
X127.62Y-48.16
X127.62Y-50.7
X127.62Y-53.24
X130.0Y-64.0
X130.0Y-109.0
X134.0Y-64.0
X134.0Y-73.0
X134.0Y-82.0
X134.0Y-91.0
X134.0Y-100.0
X134.0Y-109.0
X136.54Y-64.0
X136.54Y-73.0
X136.54Y-82.0
X136.54Y-91.0
X136.54Y-100.0
X136.54Y-109.0
X138.0Y-38.0
X138.0Y-40.54
X138.0Y-43.08
X138.0Y-45.62
X138.0Y-48.16
X138.0Y-50.7
X138.0Y-53.24
X138.0Y-55.78
X143.0Y-64.0
X143.0Y-73.0
X143.0Y-82.0
X143.0Y-91.0
X143.0Y-100.0
X143.0Y-109.0
X145.54Y-64.0
X145.54Y-73.0
X145.54Y-82.0
X145.54Y-91.0
X145.54Y-100.0
X145.54Y-109.0
X145.62Y-38.0
X145.62Y-40.54
X145.62Y-43.08
X145.62Y-45.62
X145.62Y-48.16
X145.62Y-50.7
X145.62Y-53.24
X145.62Y-55.78
T3
X30.0Y-13.0
X30.0Y-15.5
X30.0Y-18.0
X65.0Y-13.0
X65.0Y-15.5
X65.0Y-18.0
X100.0Y-13.0
X100.0Y-15.5
X100.0Y-18.0
X135.0Y-13.0
X135.0Y-15.5
X135.0Y-18.0
X137.5Y-13.0
X137.5Y-15.5
X137.5Y-18.0
T4
X12.0Y-62.0
X163.0Y-62.0
T5
X6.92Y-67.72
X17.08Y-67.72
X157.92Y-67.72
X168.08Y-67.72
T6
X8.82Y-74.07
X159.82Y-74.07
T7
X15.81Y-63.91
X166.81Y-63.91
T3
X157.0Y-12.0G85X157.0Y-14.0
G05
X159.0Y-17.7G85X161.0Y-17.7
G05
X163.0Y-12.0G85X163.0Y-14.0
G05
M30
